<svg width="85" height="56" viewBox="0 0 85 56" fill="none" xmlns="http://www.w3.org/2000/svg">
<path fill-rule="evenodd" clip-rule="evenodd" d="M59.4467 1.702C62.4937 0.178003 64.0577 0.412019 64.0967 1.93702C64.06 4.13159 63.9033 6.32251 63.6276 8.50001C62.4556 18.893 60.5807 27.371 60.4277 38.076C65.4677 25.026 69.6477 16.041 75.0787 4.90601C76.7977 1.35101 77.9307 2.01502 79.3377 1.35102C84.8467 -1.11098 85.0376 0.412999 84.2996 3.46C81.6426 14.517 74.8447 49.484 73.7897 54.837C73.4767 56.4 71.7587 55.775 71.3677 55.15C69.3357 52.45 67.1476 52.415 67.3827 50.579C68.6327 41.671 73.0827 19.128 74.2197 13.815C68.3197 25.848 62.2257 40.968 59.0997 49.485C58.4357 51.285 57.2247 51.165 56.4827 49.837C55.3887 47.923 53.3567 46.985 53.0447 44.797C51.9497 37.804 54.2557 24.441 54.5687 15.964C51.4037 25.184 46.0127 43.156 43.6687 51.243C42.6917 54.604 39.4497 54.017 40.3097 50.814C43.9037 37.178 51.6007 13.151 54.9207 4.51401C55.7027 2.44301 57.7727 2.56003 59.4527 1.70103L59.4467 1.702Z" fill="black"/>
<path fill-rule="evenodd" clip-rule="evenodd" d="M39.9898 0.0229479C38.9348 -0.212052 35.8898 1.42894 34.0128 1.70294C33.7207 1.80382 33.4523 1.96325 33.224 2.17148C32.9956 2.37971 32.8122 2.63235 32.6848 2.91394C29.7158 9.75094 27.0589 16.237 24.7929 22.097C21.8229 22.644 18.3849 23.3079 14.5559 24.1289C17.3299 17.0969 20.1038 10.1039 22.7998 3.42193C24.1278 0.0619347 20.6128 -0.250046 19.2448 3.10995C17.4868 7.44695 14.1658 15.61 10.4928 25.11C7.79282 25.774 4.86685 26.5159 1.89785 27.4149C-0.29015 28.0009 -0.369129 28.5859 0.568871 29.9149C1.11587 30.6149 2.13185 30.5399 2.63985 31.0869C3.92885 32.4149 4.71085 34.018 7.01485 34.252C4.90585 39.722 2.87387 45.3079 1.07687 50.6609C-0.0951338 54.0609 3.22483 54.7609 4.47683 51.1689C6.50816 45.4256 8.64418 39.6043 10.8848 33.705C12.7208 33.315 17.1358 32.3769 21.2378 31.4389C17.9948 40.4249 15.8859 47.1839 15.0249 50.5049C14.9861 50.7211 14.9902 50.9428 15.0373 51.1573C15.0843 51.3718 15.1732 51.5748 15.2989 51.7549C16.3539 53.3179 17.4478 53.3959 18.8538 55.3889C18.9964 55.5662 19.1864 55.6993 19.4017 55.7727C19.617 55.8461 19.8486 55.8568 20.0698 55.8036C20.2909 55.7503 20.4924 55.6353 20.6507 55.472C20.8089 55.3086 20.9176 55.1037 20.9638 54.881C23.9718 45.738 27.0188 37.2219 29.9098 29.5639C31.7784 29.2663 33.4665 28.2759 34.6378 26.7899C36.9818 23.2729 37.6468 23.9769 38.2718 22.9219C38.9718 21.5549 38.4668 20.3429 35.9668 20.6169C35.9668 20.6169 35.0288 20.6959 33.2318 20.8909C36.0448 13.7409 38.5459 7.68595 40.2649 3.03595C40.8509 1.43595 40.9289 0.261953 39.9909 0.0279528L39.9898 0.0229479Z" fill="black"/>
<path fill-rule="evenodd" clip-rule="evenodd" d="M37.2415 44.4224C37.6475 43.9064 38.0165 43.3744 38.3485 42.8834C39.8295 40.6934 38.3875 39.4054 36.8645 40.6954C36.6465 40.8954 36.4205 41.1135 36.1965 41.3395C35.9495 40.5655 35.6865 39.7394 35.4525 38.9924C36.1534 38.151 36.8071 37.2713 37.4105 36.3574C39.8595 32.5574 35.0664 30.3804 32.9954 32.8414C32.5837 33.3565 32.3191 33.9735 32.2296 34.6269C32.1402 35.2803 32.2293 35.9456 32.4874 36.5524C32.5784 36.8924 32.7195 37.3784 32.8935 37.9694C32.3075 38.5824 31.6084 39.3365 30.6934 40.4205C28.3104 43.1555 28.9734 46.6774 31.4744 47.4534C32.9834 47.9204 34.4065 47.2394 35.6395 46.1534C35.6985 46.3094 35.7555 46.4534 35.8115 46.5964C36.4765 48.2374 38.5465 47.7294 37.7255 45.7374C37.5945 45.4024 37.4255 44.9514 37.2435 44.4244L37.2415 44.4224ZM33.8494 40.9794C34.0494 41.6174 34.2704 42.2874 34.4874 42.9294C34.2291 43.1577 33.9526 43.3644 33.6605 43.5474C32.6915 44.1074 31.9805 43.5085 33.2305 41.8275C33.4305 41.5375 33.6444 41.2564 33.8494 40.9794ZM34.6315 36.1954C34.5708 36.032 34.52 35.865 34.4794 35.6954C33.7794 33.0774 36.7795 33.7774 35.2615 35.4954C35.0465 35.7394 34.8505 35.9804 34.6315 36.1954Z" fill="black"/>
</svg>
