<svg width="205" height="51" viewBox="0 0 205 51" fill="none" xmlns="http://www.w3.org/2000/svg">
<path d="M0.289418 27.6282C9.99686 18.364 22.595 12.72 35.9704 11.6432C50.2234 10.4902 63.1614 15.5552 75.9354 21.2572C82.5694 24.2182 89.2144 27.2412 96.2004 29.2902C102.786 31.216 109.615 32.1836 116.476 32.1632C126.86 32.137 137.121 29.9261 146.594 25.6742C149.72 24.2742 152.534 22.2612 155.613 20.8382C156.613 20.3752 156.544 20.4972 156.713 21.6742C156.815 22.469 156.988 23.2528 157.231 24.0162C157.502 24.9545 157.997 25.8127 158.674 26.5162C159.282 27.0079 160.005 27.3363 160.775 27.47C161.545 27.6037 162.337 27.5384 163.074 27.2802C169.374 25.6692 174.462 19.4442 178.219 14.5452L177.441 14.8692C176.883 21.3782 181.202 28.3402 188.507 25.4302C190.175 24.7652 191.558 21.4752 192.407 20.0072C193.207 18.6574 193.935 17.2665 194.588 15.8402C194.821 15.2135 195.01 14.5717 195.154 13.9192C188.243 16.6722 183.604 10.3792 184.154 3.94624C184.218 3.19924 183.428 4.20121 183.376 4.27021C179.994 8.68021 175.268 14.4872 169.526 15.8152C164.966 16.8702 163.54 12.7792 163.249 8.94422C163.305 8.61089 163.203 8.55189 162.943 8.76722C153.667 14.7932 143.147 18.6411 132.172 20.0224C121.197 21.4037 110.052 20.2827 99.5714 16.7432C88.8084 13.0992 78.8244 7.52524 68.1004 3.78224C57.8474 0.204236 47.1674 -1.05878 36.4414 0.965219C25.1484 3.08282 14.7111 8.42772 6.39238 16.3532C4.47438 18.1952 3.15339 20.8862 1.90239 23.2012C1.20405 24.3347 0.627183 25.5387 0.181386 26.7932C0.146386 26.9182 -0.269606 28.1672 0.290394 27.6292L0.289418 27.6282Z" fill="black"/>
<path d="M137.186 50.2494V42.8854L131.839 50.2494H130.211L124.849 42.9004V50.2494H123.012V39.7344H124.864L131.107 48.3224L137.321 39.7344H139.021V50.2494H137.186Z" fill="black"/>
<path d="M141.262 50.2494V39.7344H152.076V41.2874H143.249V43.9153H151.628V45.4703H143.249V48.6964H152.076V50.2494H141.262Z" fill="black"/>
<path d="M167.013 50.2494L155.798 42.0643V50.2494H154.066V39.7344H155.783L166.253 47.5464V39.7344H167.986V50.2494H167.013Z" fill="black"/>
<path d="M170.299 50.2494V39.7344H172.286V50.2494H170.299Z" fill="black"/>
<path d="M187.552 50.2494L176.335 42.0643V50.2494H174.602V39.7344H176.32L186.791 47.5464V39.7344H188.523V50.2494H187.552Z" fill="black"/>
<path d="M190.508 50.2503V48.9062L201.143 41.4383H190.508V39.7383H204.637V41.0823L193.958 48.5503H204.637V50.2503H190.508Z" fill="black"/>
<path d="M151.392 34.59L147.27 36.4766L148.007 38.0873L152.129 36.2008L151.392 34.59Z" fill="black"/>
</svg>
