<svg width="124" height="63" viewBox="0 0 124 63" fill="none" xmlns="http://www.w3.org/2000/svg">
<path d="M70.8516 22.4834V45.2935H78.7033C80.1741 45.2935 81.3673 44.1003 81.3673 42.6295V9.125L79.572 10.5133L74.9891 14.0571C72.3801 16.075 70.8516 19.1871 70.8516 22.4834Z" fill="black"/>
<path d="M81.3681 0H70.8524C67.4077 0 64.0481 1.04745 61.2137 3.00488L50.3461 10.5129L0 45.2931H14.6203C17.144 45.2931 19.6073 44.5233 21.6857 43.091L68.8428 10.5129C70.1514 9.60846 71.7047 9.1246 73.2937 9.1246H81.3681V3.12309C81.3681 2.33132 81.7558 1.59179 82.4073 1.14367L84.0596 0.0027492H81.3681V0Z" fill="black"/>
<path d="M98.3586 32.5775L101.199 38.2546C101.262 38.4058 101.292 38.546 101.292 38.6697V45.2925H99.4006V41.5069H93.7235V45.2925H91.832V38.6697C91.832 38.5432 91.8623 38.4058 91.9255 38.2546L94.7654 32.5775C94.9304 32.2256 95.2135 32.0469 95.6177 32.0469H97.5091C97.9133 32.0469 98.1964 32.2228 98.3614 32.5775H98.3586ZM93.7235 38.8979V39.6182H99.4006V38.8979L96.9208 33.9411H96.2005L93.7207 38.8979H93.7235Z" fill="black"/>
<path d="M103.184 32.0469H109.806C110.587 32.0469 111.258 32.3245 111.813 32.8799C112.369 33.4352 112.646 34.1033 112.646 34.8868V42.4554C112.646 43.2389 112.369 43.9069 111.813 44.4623C111.258 45.0176 110.59 45.2953 109.806 45.2953H103.184V32.0496V32.0469ZM110.752 42.4554V34.8868C110.752 34.6229 110.661 34.3974 110.477 34.216C110.293 34.0318 110.07 33.9411 109.806 33.9411H105.075V43.4038H109.806C110.07 43.4038 110.296 43.3131 110.477 43.1289C110.659 42.9447 110.752 42.722 110.752 42.4581V42.4554Z" fill="black"/>
<path d="M121.066 32.5775L123.906 38.2546C123.969 38.4058 123.999 38.546 123.999 38.6697V45.2925H122.108V41.5069H116.431V45.2925H114.539V38.6697C114.539 38.5432 114.569 38.4058 114.633 38.2546L117.472 32.5775C117.637 32.2256 117.921 32.0469 118.325 32.0469H120.216C120.62 32.0469 120.903 32.2228 121.068 32.5775H121.066ZM116.431 38.8979V39.6182H122.108V38.8979L119.628 33.9411H118.908L116.428 38.8979H116.431Z" fill="black"/>
<path d="M80.4756 48.8691V50.7606H72.9071V54.5462H78.5842V56.4377H72.9071V62.1148H71.0156V48.8691H80.4784H80.4756Z" fill="black"/>
<path d="M87.4778 49.3978L90.3177 55.0749C90.3809 55.2261 90.4112 55.3663 90.4112 55.4928V62.1156H88.5197V58.3299H82.8426V62.1156H80.9512V55.4928C80.9512 55.3663 80.9814 55.2288 81.0446 55.0749L83.8846 49.3978C84.0495 49.0459 84.3327 48.8672 84.7368 48.8672H86.6283C87.0324 48.8672 87.3156 49.0431 87.4805 49.3978H87.4778ZM82.8426 55.7182V56.4385H88.5197V55.7182L86.0399 50.7586H85.3196L82.8399 55.7182H82.8426Z" fill="black"/>
<path d="M99.7028 56.3261L101.501 58.1434C101.677 58.344 101.765 58.5667 101.765 58.8059V62.1187H99.8732V59.1853L97.168 56.4416H94.1961V62.1187H92.3047V48.873H98.9275C99.7083 48.873 100.379 49.1507 100.934 49.7061C101.49 50.2614 101.767 50.9295 101.767 51.713V53.6044C101.767 54.2477 101.575 54.8196 101.19 55.3172C100.805 55.8148 100.31 56.1529 99.7055 56.3289L99.7028 56.3261ZM94.1961 54.5474H98.9275C99.1914 54.5474 99.4169 54.4567 99.5983 54.2725C99.7798 54.0883 99.8732 53.8656 99.8732 53.6017V51.7102C99.8732 51.4463 99.7825 51.2209 99.5983 51.0394C99.4141 50.858 99.1914 50.7645 98.9275 50.7645H94.1961V54.5501V54.5474Z" fill="black"/>
<path d="M113.119 48.8691V50.7606H105.55V54.5462H111.228V56.4377H105.55V60.2233H113.119V62.1148H103.656V48.8691H113.119Z" fill="black"/>
<path d="M121.16 62.1156H117.374C116.59 62.1156 115.922 61.8379 115.367 61.2826C114.812 60.7272 114.534 60.0592 114.534 59.2757V58.6901H116.425V59.2757C116.425 59.5396 116.516 59.765 116.7 59.9465C116.885 60.1307 117.107 60.2214 117.371 60.2214H121.157C121.421 60.2214 121.646 60.1307 121.828 59.9465C122.009 59.7623 122.103 59.5396 122.103 59.2757V58.3492C122.089 58.0715 121.927 57.8461 121.61 57.6674L116.027 54.9787C115.535 54.701 115.164 54.3491 114.911 53.9202C114.658 53.4913 114.531 53.068 114.531 52.6528V51.7071C114.531 50.9263 114.809 50.2555 115.364 49.7002C115.92 49.1449 116.588 48.8672 117.371 48.8672H121.157C121.938 48.8672 122.608 49.1449 123.164 49.7002C123.719 50.2555 123.997 50.9236 123.997 51.7071V52.2927H122.105V51.7071C122.105 51.4432 122.015 51.2178 121.83 51.0363C121.646 50.8549 121.423 50.7614 121.16 50.7614H117.374C117.11 50.7614 116.885 50.8521 116.703 51.0363C116.519 51.2205 116.428 51.4432 116.428 51.7071V52.6336C116.439 52.9113 116.604 53.1394 116.92 53.3154L122.504 56.0014C122.996 56.279 123.367 56.6337 123.62 57.0626C123.873 57.4914 124 57.9148 124 58.3299V59.2757C124 60.0592 123.722 60.7272 123.166 61.2826C122.611 61.8379 121.943 62.1156 121.16 62.1156Z" fill="black"/>
<path d="M84.252 6.16459C84.252 2.93427 86.586 0.490234 89.8163 0.490234C93.0467 0.490234 95.345 2.93427 95.345 6.16459C95.345 9.3949 92.9724 11.8197 89.8163 11.8197C86.6603 11.8197 84.252 9.37566 84.252 6.16459ZM93.9401 6.14534C93.9401 3.64632 92.1889 1.82085 89.7998 1.82085C87.4108 1.82085 85.6403 3.64357 85.6403 6.14534C85.6403 8.64712 87.4108 10.4698 89.7998 10.4698C92.1889 10.4698 93.9401 8.66361 93.9401 6.14534ZM86.7345 6.1096C86.7345 4.17691 87.9936 2.73358 89.9098 2.73358C91.3889 2.73358 92.4281 3.59133 92.846 4.70476L91.716 5.65324C91.5153 4.77624 90.9133 4.12193 89.9291 4.12193C88.8899 4.12193 88.252 4.75974 88.252 6.1096C88.252 7.45946 88.8899 8.11652 89.9291 8.11652C90.9133 8.11652 91.5153 7.44022 91.716 6.58522L92.846 7.53369C92.4253 8.64712 91.3861 9.50487 89.9098 9.50487C87.9936 9.50487 86.7345 8.06429 86.7345 6.11235V6.1096Z" fill="black"/>
</svg>
