<svg width="158" height="64" viewBox="0 0 158 64" fill="none" xmlns="http://www.w3.org/2000/svg">
<path d="M58.665 31.1555C55.0151 33.35 50.6678 34.0756 46.503 33.1855C46.512 33.4215 46.517 33.6585 46.517 33.8995C46.5148 37.4482 45.4093 40.9084 43.3536 43.8011C41.2979 46.6937 38.3937 48.8756 35.0431 50.0447C31.6925 51.2138 28.0613 51.3123 24.6523 50.3264C21.2433 49.3405 18.2251 47.3191 16.0157 44.542C13.8064 41.7649 12.5151 38.3696 12.3207 34.8262C12.1263 31.2828 13.0384 27.7667 14.9308 24.7646C16.8231 21.7626 19.602 19.4231 22.8827 18.0702C26.1635 16.7173 29.7836 16.4179 33.242 17.2135C33.242 17.0695 33.242 16.9265 33.242 16.7775C33.2352 12.6655 34.7473 8.69592 37.488 5.63049C31.5619 3.93476 25.2526 4.14456 19.4522 6.23022C13.6518 8.31589 8.65359 12.1719 5.16424 17.2532C1.67489 22.3344 -0.129148 28.3839 0.00719649 34.5464C0.143541 40.7089 2.21339 46.6727 5.92407 51.5947C9.63474 56.5166 14.7985 60.1478 20.6855 61.9749C26.5725 63.8019 32.8849 63.7325 38.7302 61.7763C44.5756 59.8201 49.6583 56.0762 53.2598 51.0738C56.8612 46.0714 58.7993 40.0635 58.8 33.8995C58.7967 32.9721 58.7517 32.0575 58.665 31.1555Z" fill="#2E2E2E"/>
<path d="M46.5032 33.1849C42.8216 32.3958 39.5123 30.3918 37.1072 27.495C34.702 24.5982 33.3407 20.9768 33.2422 17.2129C36.8963 18.0563 40.1726 20.0756 42.5682 22.9609C44.9637 25.8462 46.3461 29.438 46.5032 33.1849Z" fill="#2E2E2E"/>
<path d="M58.6652 31.1539C55.0153 33.3483 50.6679 34.074 46.5032 33.1839C46.3463 29.437 44.964 25.8451 42.5684 22.9598C40.1728 20.0744 36.8964 18.0551 33.2422 17.2119C33.2422 17.0679 33.2422 16.9249 33.2422 16.7759C33.2353 12.6639 34.7474 8.69428 37.4882 5.62891C43.1763 7.25908 48.2403 10.5672 52.0185 15.1211C55.7966 19.6749 58.1131 25.2626 58.6652 31.1539Z" fill="#0F0F0F"/>
<path d="M66.7894 16.7741C66.7916 19.6682 66.0444 22.5135 64.6205 25.0331C63.1967 27.5527 61.1448 29.6608 58.6644 31.1521C58.1119 25.2602 55.7947 19.672 52.0156 15.1181C48.2365 10.5641 43.1714 7.25635 37.4824 5.62703C39.7426 3.08544 42.7219 1.29101 46.0254 0.481734C49.3289 -0.327544 52.8003 -0.113415 55.9793 1.09572C59.1583 2.30485 61.8946 4.45185 63.8252 7.25194C65.7558 10.052 66.7896 13.3729 66.7894 16.7741Z" fill="#4E4E4E"/>
<path d="M84.8064 35.2373V27.1543H88.0234V47.4293H85.0494V45.4293C84.5457 46.209 83.8395 46.8373 83.0063 47.2468C82.1732 47.6563 81.2445 47.8317 80.3194 47.7543C79.4208 47.7936 78.5252 47.625 77.7024 47.2617C76.8796 46.8983 76.1517 46.3499 75.5754 45.6593C74.4437 44.1477 73.832 42.3102 73.832 40.4218C73.832 38.5335 74.4437 36.696 75.5754 35.1843C76.1497 34.4905 76.8769 33.9391 77.7 33.5734C78.523 33.2076 79.4196 33.0375 80.3194 33.0763C81.1909 33.013 82.0639 33.1792 82.8511 33.5584C83.6384 33.9376 84.3125 34.5164 84.8064 35.2373ZM84.9414 40.4273C84.9885 39.2525 84.6092 38.1003 83.8734 37.1833C83.5095 36.7832 83.066 36.4636 82.5714 36.2448C82.0767 36.0261 81.5418 35.9131 81.0009 35.9131C80.4601 35.9131 79.9251 36.0261 79.4305 36.2448C78.9358 36.4636 78.4923 36.7832 78.1284 37.1833C77.4266 38.1116 77.0469 39.2435 77.0469 40.4073C77.0469 41.571 77.4266 42.703 78.1284 43.6313C78.4903 44.0341 78.9326 44.3566 79.4269 44.5777C79.9213 44.7988 80.4565 44.9137 80.998 44.9149C81.5396 44.9161 82.0752 44.8037 82.5706 44.5848C83.0659 44.366 83.5097 44.0455 83.8734 43.6443C84.6063 42.7361 84.9856 41.5934 84.9414 40.4273Z" fill="black"/>
<path d="M104.162 39.3714V47.4274H100.945V39.0204C100.945 36.8944 100.062 35.831 98.2963 35.8304C97.872 35.8109 97.4485 35.8829 97.0544 36.0414C96.6603 36.2 96.3049 36.4414 96.0123 36.7494C95.4142 37.4458 95.1089 38.3468 95.1603 39.2634V47.4274H91.9434V33.3974H94.9174V35.2624C95.2861 34.6056 95.8286 34.0631 96.4854 33.6944C97.2876 33.2552 98.1933 33.0403 99.1074 33.0724C99.9471 33.0114 100.787 33.1868 101.532 33.5786C102.278 33.9704 102.898 34.563 103.324 35.2894C103.887 34.5717 104.611 33.997 105.438 33.6118C106.265 33.2266 107.171 33.0418 108.082 33.0724C108.787 33.029 109.493 33.1435 110.148 33.4077C110.802 33.6719 111.39 34.079 111.867 34.5994C112.788 35.7285 113.26 37.1579 113.191 38.6133V47.4264H109.974V39.0193C109.974 36.8933 109.091 35.83 107.325 35.8293C106.896 35.8085 106.466 35.8812 106.067 36.0422C105.668 36.2033 105.309 36.449 105.014 36.7624C104.409 37.4921 104.104 38.425 104.162 39.3714Z" fill="black"/>
<path d="M115.838 43.5092L118.867 43.0222C118.887 43.3221 118.974 43.6137 119.121 43.8757C119.268 44.1377 119.472 44.3633 119.718 44.5362C120.365 44.9524 121.127 45.1514 121.895 45.1043C122.563 45.1432 123.228 44.9931 123.814 44.6712C124.02 44.5553 124.192 44.3862 124.311 44.1815C124.43 43.9768 124.492 43.7439 124.49 43.5072C124.492 43.247 124.413 42.9925 124.266 42.778C124.119 42.5634 123.909 42.3992 123.666 42.3073C123.035 42.0185 122.372 41.804 121.692 41.6682L119.367 41.1682C118.527 41.0054 117.776 40.5406 117.255 39.8617C116.735 39.1827 116.481 38.3366 116.542 37.4832C116.541 36.8805 116.678 36.2856 116.943 35.7442C117.208 35.2028 117.593 34.7293 118.07 34.3603C119.219 33.4607 120.653 33.0049 122.111 33.0763C123.481 32.9855 124.835 33.4204 125.896 34.2923C126.744 35.0421 127.323 36.0486 127.545 37.1582L124.545 37.6992C124.478 37.1515 124.213 36.647 123.801 36.2802C123.306 35.8675 122.673 35.6594 122.03 35.6983C121.405 35.6596 120.784 35.8101 120.246 36.1303C120.049 36.2588 119.888 36.4358 119.779 36.6444C119.67 36.8529 119.617 37.0861 119.624 37.3213C119.634 37.5649 119.719 37.7995 119.869 37.9919C120.019 38.1844 120.225 38.3251 120.459 38.3943C121.097 38.6642 121.76 38.8732 122.438 39.0183L124.763 39.5443C125.551 39.7204 126.256 40.1582 126.763 40.7862C127.398 41.6512 127.678 42.7265 127.545 43.7913C127.412 44.8561 126.877 45.8296 126.049 46.5122C124.79 47.4156 123.257 47.8552 121.711 47.7563C120.238 47.8554 118.776 47.4397 117.575 46.5802C116.627 45.8147 116.005 44.7165 115.838 43.5092Z" fill="black"/>
<path d="M129.113 43.5092L132.141 43.0222C132.161 43.3221 132.248 43.6137 132.395 43.8757C132.542 44.1377 132.746 44.3633 132.992 44.5362C133.639 44.9522 134.401 45.1512 135.168 45.1043C135.836 45.1431 136.501 44.993 137.087 44.6712C137.294 44.5553 137.465 44.3862 137.584 44.1815C137.703 43.9768 137.765 43.7439 137.763 43.5072C137.765 43.247 137.687 42.9926 137.539 42.7781C137.392 42.5636 137.183 42.3993 136.939 42.3073C136.308 42.0186 135.646 41.8041 134.965 41.6682L132.64 41.1682C131.8 41.0054 131.049 40.5406 130.529 39.8617C130.008 39.1827 129.754 38.3366 129.815 37.4832C129.814 36.8805 129.951 36.2855 130.216 35.744C130.481 35.2026 130.867 34.7292 131.343 34.3603C132.492 33.4606 133.927 33.0048 135.384 33.0763C136.755 32.9855 138.108 33.4204 139.169 34.2923C140.017 35.042 140.596 36.0485 140.818 37.1582L137.818 37.6992C137.752 37.1515 137.487 36.647 137.075 36.2802C136.581 35.8676 135.947 35.6595 135.304 35.6983C134.68 35.6595 134.058 35.8101 133.52 36.1303C133.323 36.2588 133.163 36.4359 133.054 36.6445C132.945 36.8531 132.892 37.0861 132.899 37.3213C132.909 37.5649 132.995 37.7995 133.144 37.9919C133.294 38.1844 133.5 38.3251 133.734 38.3943C134.372 38.6641 135.035 38.8731 135.712 39.0183L138.037 39.5443C138.825 39.7204 139.53 40.1582 140.037 40.7862C140.672 41.6512 140.952 42.7265 140.819 43.7913C140.687 44.8561 140.151 45.8296 139.323 46.5122C138.064 47.4156 136.531 47.8552 134.984 47.7563C133.511 47.8553 132.049 47.4396 130.848 46.5802C129.901 45.8142 129.28 44.7162 129.113 43.5092Z" fill="black"/>
<path d="M150.142 47.7526C149.165 47.7899 148.19 47.6188 147.284 47.2507C146.377 46.8826 145.559 46.3259 144.884 45.6176C143.589 44.1967 142.871 42.3433 142.871 40.4206C142.871 38.4979 143.589 36.6445 144.884 35.2236C146.293 33.8458 148.185 33.0742 150.156 33.0742C152.126 33.0742 154.019 33.8458 155.427 35.2236C156.723 36.6443 157.442 38.4977 157.442 40.4206C157.442 42.3434 156.723 44.1969 155.427 45.6176C154.748 46.3279 153.926 46.8856 153.015 47.2537C152.103 47.6218 151.124 47.7919 150.142 47.7526ZM146.087 40.4266C146.035 41.6161 146.447 42.7793 147.236 43.6706C147.614 44.0638 148.068 44.3766 148.569 44.5903C149.071 44.8039 149.611 44.9141 150.156 44.9141C150.701 44.9141 151.241 44.8039 151.743 44.5903C152.244 44.3766 152.698 44.0638 153.075 43.6706C153.819 42.7479 154.225 41.5983 154.225 40.4131C154.225 39.2278 153.819 38.0784 153.075 37.1556C152.698 36.7625 152.244 36.4496 151.743 36.236C151.241 36.0223 150.701 35.9121 150.156 35.9121C149.611 35.9121 149.071 36.0223 148.569 36.236C148.068 36.4496 147.614 36.7625 147.236 37.1556C146.445 38.0561 146.032 39.2288 146.087 40.4266Z" fill="black"/>
<path d="M128.764 20.5571C128.491 20.5428 128.219 20.5893 127.966 20.693C127.713 20.7968 127.487 20.9553 127.303 21.1571C126.93 21.6114 126.74 22.1889 126.771 22.776C126.743 23.372 126.935 23.9574 127.311 24.4211C127.49 24.6285 127.714 24.7928 127.965 24.9015C128.217 25.0103 128.49 25.0607 128.764 25.0491C129.243 25.068 129.715 24.9207 130.098 24.6321C130.275 24.4885 130.422 24.3107 130.529 24.1094C130.636 23.908 130.701 23.6872 130.721 23.4601H129.053V22.495H131.747V25.9001H130.793V25C130.586 25.3169 130.296 25.5706 129.955 25.7331C129.564 25.918 129.136 26.0094 128.704 26C128.294 26.0139 127.887 25.9409 127.507 25.7858C127.128 25.6307 126.786 25.397 126.504 25.1001C125.949 24.4488 125.645 23.6201 125.648 22.7642C125.652 21.9084 125.962 21.082 126.522 20.435C126.812 20.1369 127.162 19.9028 127.548 19.7478C127.934 19.5928 128.348 19.5203 128.764 19.5351C129.409 19.5201 130.044 19.7041 130.581 20.0621C131.092 20.4086 131.47 20.9195 131.652 21.5101L130.625 21.87C130.518 21.4784 130.279 21.1357 129.949 20.9001C129.6 20.6642 129.185 20.5441 128.764 20.5571Z" fill="black"/>
<path d="M135.057 26.0072C134.74 26.0193 134.424 25.9638 134.129 25.8443C133.835 25.7248 133.569 25.5441 133.35 25.3142C132.929 24.8534 132.695 24.2516 132.695 23.6272C132.695 23.0028 132.929 22.401 133.35 21.9402C133.807 21.4927 134.422 21.2422 135.061 21.2422C135.701 21.2422 136.315 21.4927 136.772 21.9402C137.194 22.401 137.427 23.0028 137.427 23.6272C137.427 24.2516 137.194 24.8534 136.772 25.3142C136.552 25.5447 136.285 25.7257 135.989 25.8452C135.694 25.9646 135.376 26.0199 135.057 26.0072ZM133.74 23.6292C133.724 24.0153 133.857 24.3927 134.113 24.6822C134.236 24.8105 134.384 24.9125 134.547 24.9822C134.71 25.052 134.886 25.088 135.063 25.088C135.241 25.088 135.417 25.052 135.58 24.9822C135.743 24.9125 135.891 24.8105 136.013 24.6822C136.255 24.3827 136.387 24.0095 136.387 23.6247C136.387 23.2399 136.255 22.8667 136.013 22.5672C135.891 22.4388 135.743 22.3366 135.58 22.2668C135.417 22.197 135.241 22.161 135.063 22.161C134.886 22.161 134.71 22.197 134.547 22.2668C134.383 22.3366 134.236 22.4388 134.113 22.5672C133.854 22.8586 133.718 23.2395 133.735 23.6292H133.74Z" fill="black"/>
<path d="M140.455 26.0073C140.137 26.0196 139.821 25.9641 139.526 25.8447C139.232 25.7252 138.966 25.5444 138.747 25.3143C138.325 24.8535 138.092 24.2517 138.092 23.6273C138.092 23.0029 138.325 22.4011 138.747 21.9403C139.204 21.4928 139.818 21.2422 140.458 21.2422C141.098 21.2422 141.713 21.4928 142.17 21.9403C142.591 22.4011 142.825 23.0029 142.825 23.6273C142.825 24.2517 142.591 24.8535 142.17 25.3143C141.949 25.5448 141.683 25.7258 141.387 25.8453C141.091 25.9648 140.773 26.02 140.455 26.0073ZM139.138 23.6293C139.121 24.0154 139.255 24.3929 139.511 24.6823C139.634 24.8106 139.781 24.9126 139.944 24.9824C140.108 25.0521 140.283 25.0881 140.461 25.0881C140.638 25.0881 140.814 25.0521 140.977 24.9824C141.141 24.9126 141.288 24.8106 141.411 24.6823C141.652 24.3828 141.784 24.0096 141.784 23.6248C141.784 23.2401 141.652 22.8669 141.411 22.5673C141.288 22.4389 141.141 22.3367 140.977 22.2669C140.814 22.1971 140.638 22.1611 140.461 22.1611C140.283 22.1611 140.107 22.1971 139.944 22.2669C139.781 22.3367 139.633 22.4389 139.511 22.5673C139.253 22.8595 139.12 23.2403 139.138 23.6293Z" fill="black"/>
<path d="M145.541 24.5611C145.279 24.5581 145.02 24.5076 144.777 24.4121C144.71 24.4362 144.65 24.4751 144.601 24.526C144.566 24.5583 144.539 24.5978 144.52 24.6416C144.502 24.6855 144.494 24.7327 144.496 24.7801C144.496 24.9801 144.601 25.0801 144.812 25.0801H146.304C146.505 25.0621 146.709 25.0864 146.9 25.1513C147.092 25.2162 147.268 25.3203 147.418 25.4571C147.658 25.7265 147.784 26.0792 147.769 26.44C147.766 26.6448 147.714 26.846 147.618 27.0268C147.522 27.2077 147.384 27.3631 147.216 27.4801C146.738 27.8014 146.166 27.9541 145.592 27.914C145.04 27.9542 144.487 27.8451 143.992 27.5981C143.84 27.4999 143.716 27.3654 143.629 27.2068C143.543 27.0482 143.498 26.8706 143.498 26.69C143.498 26.5095 143.543 26.3319 143.629 26.1733C143.716 26.0147 143.84 25.8803 143.992 25.7821C143.866 25.6898 143.766 25.5675 143.7 25.4266C143.635 25.2856 143.605 25.1304 143.615 24.9751C143.607 24.7819 143.654 24.5904 143.75 24.4227C143.846 24.255 143.988 24.1179 144.159 24.0271C143.866 23.7102 143.709 23.2918 143.72 22.8607C143.732 22.4296 143.911 22.02 144.22 21.719C144.582 21.3921 145.058 21.2217 145.546 21.245C145.887 21.24 146.224 21.3183 146.529 21.4731C146.618 21.2559 146.773 21.072 146.972 20.9471C147.178 20.8172 147.417 20.7501 147.661 20.7541L147.916 20.7721V21.672C147.852 21.6644 147.787 21.6614 147.723 21.6631C147.594 21.6551 147.467 21.6958 147.367 21.7771C147.324 21.8172 147.29 21.8663 147.268 21.9209C147.246 21.9755 147.236 22.0343 147.24 22.0931L147.258 22.2861C147.331 22.4826 147.369 22.6903 147.372 22.9001C147.377 23.1217 147.335 23.3421 147.249 23.5464C147.163 23.7507 147.034 23.9343 146.872 24.0851C146.692 24.248 146.482 24.3738 146.253 24.4555C146.025 24.5372 145.783 24.5731 145.541 24.5611ZM146.278 26.0091H144.672C144.592 26.0571 144.526 26.1255 144.482 26.2072C144.437 26.2889 144.415 26.381 144.418 26.474C144.412 26.5641 144.433 26.654 144.478 26.7322C144.523 26.8103 144.591 26.8733 144.672 26.9131C144.959 27.02 145.266 27.0646 145.572 27.044C146.397 27.044 146.81 26.8441 146.81 26.4441C146.813 26.3827 146.801 26.3215 146.777 26.2651C146.753 26.2088 146.716 26.1588 146.669 26.1191C146.554 26.0376 146.414 25.9984 146.274 26.008L146.278 26.0091ZM144.905 22.336C144.83 22.4103 144.771 22.4986 144.731 22.5957C144.691 22.6928 144.67 22.7969 144.67 22.9021C144.67 23.0072 144.691 23.1113 144.731 23.2084C144.771 23.3055 144.83 23.3938 144.905 23.4681C145.087 23.6074 145.311 23.6828 145.541 23.6828C145.77 23.6828 145.994 23.6074 146.177 23.4681C146.251 23.3938 146.31 23.3055 146.35 23.2084C146.391 23.1113 146.411 23.0072 146.411 22.9021C146.411 22.7969 146.391 22.6928 146.35 22.5957C146.31 22.4986 146.251 22.4103 146.177 22.336C145.994 22.1966 145.77 22.121 145.541 22.121C145.311 22.121 145.087 22.1966 144.905 22.336Z" fill="black"/>
<path d="M149.667 25.9024H148.623V19.3164H149.667V25.9024Z" fill="black"/>
<path d="M154.04 24.4086L154.98 24.6547C154.825 25.0588 154.547 25.4041 154.185 25.6417C153.806 25.8885 153.361 26.0153 152.908 26.0057C152.601 26.0176 152.295 25.9634 152.011 25.8468C151.727 25.7301 151.472 25.5538 151.262 25.3297C150.856 24.8554 150.633 24.2515 150.633 23.6272C150.633 23.0028 150.856 22.399 151.262 21.9246C151.474 21.709 151.727 21.5375 152.005 21.4201C152.284 21.3026 152.583 21.2415 152.885 21.2403C153.188 21.239 153.487 21.2977 153.767 21.413C154.046 21.5282 154.3 21.6977 154.514 21.9116C154.931 22.3731 155.153 22.9787 155.133 23.6007L155.124 23.9257H151.657C151.681 24.2517 151.821 24.5582 152.052 24.7897C152.17 24.8986 152.308 24.9829 152.459 25.038C152.61 25.0931 152.77 25.1178 152.93 25.1107C153.166 25.1286 153.401 25.07 153.601 24.9435C153.801 24.817 153.955 24.6295 154.04 24.4086ZM152.899 22.0917C152.6 22.0812 152.308 22.1849 152.083 22.3817C151.863 22.5842 151.722 22.8574 151.683 23.1536H154.105C154.072 22.8588 153.935 22.5853 153.719 22.3817C153.494 22.182 153.2 22.0777 152.899 22.0907V22.0917Z" fill="black"/>
</svg>
