<svg width="242" height="54" viewBox="0 0 242 54" fill="none" xmlns="http://www.w3.org/2000/svg">
<path d="M21.0303 4.91664H18.4182C18.1733 4.64861 18.0307 4.3028 18.0155 3.94003C18.0155 3.30946 18.3699 2.99416 19.0785 2.99416C19.5248 3.01111 19.9511 3.18359 20.2836 3.48174V2.21815C19.8835 1.92611 19.4025 1.76593 18.9072 1.75986C18.6297 1.75714 18.3546 1.81046 18.0982 1.91664C17.8418 2.02281 17.6095 2.17964 17.4152 2.37775C17.2151 2.56202 17.0555 2.78594 16.9466 3.03524C16.8377 3.28454 16.7819 3.55377 16.7827 3.82582C16.7843 4.2091 16.8852 4.58543 17.0755 4.91811H16.301L15.6406 6.15242H20.3758L21.0303 4.91664Z" fill="black"/>
<path d="M17.2269 24.08C16.1717 24.0639 15.1367 23.7878 14.2136 23.2762V25.4578C15.2476 26.0076 16.4014 26.2933 17.5725 26.2895C18.3721 26.3231 19.1694 26.1811 19.9083 25.8735C20.6472 25.5659 21.3098 25.1002 21.8494 24.509C23.0399 23.0703 23.6448 21.2359 23.5434 19.3712V13.1148C23.6037 11.8336 23.1863 10.5756 22.3721 9.5846C21.8982 9.06703 21.3147 8.66185 20.6641 8.39865C20.0136 8.13545 19.3125 8.02088 18.612 8.06331C17.8976 8.03439 17.1852 8.15769 16.5221 8.42501C15.859 8.69233 15.2602 9.09758 14.7656 9.61388C13.7784 10.8639 13.2087 12.3923 13.1367 13.9836C13.0647 15.5748 13.4941 17.1484 14.3644 18.4824C14.827 19.1059 15.4347 19.6071 16.1349 19.9424C16.835 20.2776 17.6065 20.4369 18.3822 20.4064C19.2909 20.4304 20.1962 20.2844 21.0514 19.9759C21.0485 21.0861 20.6516 22.1591 19.9313 23.0039C19.5835 23.366 19.1622 23.6495 18.6958 23.8351C18.2293 24.0207 17.7284 24.1043 17.2269 24.08ZM18.4612 18.2819C18.0431 18.2945 17.6285 18.2025 17.255 18.0143C16.8814 17.8262 16.5607 17.5477 16.3221 17.2042C15.757 16.352 15.4804 15.3409 15.5329 14.3198C15.4761 13.2893 15.7641 12.2693 16.3513 11.4207C16.6131 11.0751 16.9547 10.798 17.3468 10.6132C17.739 10.4283 18.1701 10.3412 18.6033 10.3592C20.2295 10.3592 21.0431 11.3158 21.044 13.229V17.2203C20.741 17.6043 20.3442 17.9038 19.8918 18.09C19.4395 18.2762 18.9468 18.3413 18.4612 18.2819Z" fill="black"/>
<path d="M30.7812 20.891H42.7509C44.0139 20.9455 45.2519 20.5279 46.224 19.7197C46.7413 19.2273 47.1454 18.6282 47.4081 17.964C47.6708 17.2998 47.7858 16.5864 47.7452 15.8733V15.3813C47.7756 14.5254 47.6283 13.6724 47.3128 12.8761C46.9974 12.0798 46.5204 11.3574 45.9121 10.7545C45.2192 10.0798 44.3958 9.55369 43.4925 9.20827C42.5892 8.86285 41.6249 8.70543 40.6586 8.74564H40.4873L46.1405 2.37205H43.6148L37.3276 9.34743V11.7882C38.314 11.4325 39.3538 11.2478 40.4024 11.2421C41.5415 11.2055 42.6649 11.5159 43.6236 12.1323C44.1588 12.4884 44.5932 12.9765 44.8848 13.5495C45.1765 14.1225 45.3154 14.761 45.2883 15.4033V15.6624C45.2883 17.5952 44.3698 18.5615 42.5327 18.5615H31.0784C30.6918 18.6126 30.2986 18.573 29.93 18.4458C29.5613 18.3187 29.2274 18.1074 28.9545 17.8289C28.6816 17.5503 28.4773 17.212 28.3577 16.8408C28.2382 16.4697 28.2067 16.0757 28.2657 15.6903V0.169922L25.7971 1.48768V15.7679C25.7469 17.0353 26.1544 18.2784 26.945 19.2702C27.419 19.8145 28.0109 20.2433 28.6757 20.5242C29.3405 20.8051 30.0606 20.9306 30.7812 20.891Z" fill="black"/>
<path d="M79.1829 7.07477C80.1014 7.07477 80.5612 6.59647 80.5621 5.63987C80.5708 5.45183 80.5412 5.26401 80.4752 5.08773C80.4092 4.91145 80.3081 4.75038 80.1781 4.61426C80.0481 4.47815 79.8918 4.36981 79.7187 4.29578C79.5457 4.22176 79.3594 4.18359 79.1712 4.18359C78.9829 4.18359 78.7967 4.22176 78.6236 4.29578C78.4505 4.36981 78.2943 4.47815 78.1642 4.61426C78.0342 4.75038 77.9332 4.91145 77.8671 5.08773C77.8011 5.26401 77.7716 5.45183 77.7802 5.63987C77.7506 5.83226 77.7662 6.0289 77.8257 6.21423C77.8852 6.39956 77.9871 6.56849 78.1231 6.70768C78.2592 6.84687 78.4258 6.95251 78.6097 7.01622C78.7936 7.07993 78.9899 7.09997 79.1829 7.07477Z" fill="black"/>
<path d="M76.4463 2.89118C77.3658 2.89118 77.8255 2.41289 77.8255 1.45629C77.8342 1.26825 77.8046 1.08041 77.7386 0.904134C77.6726 0.727856 77.5715 0.566798 77.4415 0.430681C77.3115 0.294563 77.1552 0.186211 76.9821 0.112189C76.8091 0.038166 76.6228 0 76.4346 0C76.2463 0 76.0601 0.038166 75.887 0.112189C75.7139 0.186211 75.5577 0.294563 75.4276 0.430681C75.2976 0.566798 75.1966 0.727856 75.1305 0.904134C75.0645 1.08041 75.035 1.26825 75.0436 1.45629C75.0143 1.64862 75.0301 1.84512 75.0898 2.0303C75.1494 2.21548 75.2512 2.3843 75.3872 2.52341C75.5232 2.66253 75.6897 2.76817 75.8734 2.83199C76.0572 2.89581 76.2533 2.91607 76.4463 2.89118Z" fill="black"/>
<path d="M73.7138 7.07477C74.6334 7.07477 75.0931 6.59647 75.0931 5.63987C75.1017 5.45183 75.0722 5.26401 75.0062 5.08773C74.9401 4.91145 74.8391 4.75038 74.7091 4.61426C74.579 4.47815 74.4228 4.36981 74.2497 4.29578C74.0766 4.22176 73.8904 4.18359 73.7021 4.18359C73.5139 4.18359 73.3276 4.22176 73.1546 4.29578C72.9815 4.36981 72.8252 4.47815 72.6952 4.61426C72.5652 4.75038 72.4641 4.91145 72.3981 5.08773C72.3321 5.26401 72.3025 5.45183 72.3112 5.63987C72.2819 5.8322 72.2977 6.02871 72.3573 6.21389C72.417 6.39908 72.5188 6.56788 72.6548 6.707C72.7908 6.84612 72.9572 6.95176 73.141 7.01558C73.3248 7.0794 73.5209 7.09966 73.7138 7.07477Z" fill="black"/>
<path d="M87.5159 15.7843V8.43555L85.0473 9.7533V15.695C85.1063 16.0804 85.0748 16.4744 84.9553 16.8455C84.8358 17.2167 84.6315 17.555 84.3586 17.8336C84.0857 18.1121 83.7517 18.3234 83.383 18.4505C83.0144 18.5777 82.6212 18.6173 82.2346 18.5662H80.8861C80.5013 18.6149 80.1104 18.5733 79.7445 18.4448C79.3785 18.3163 79.0475 18.1043 78.7776 17.8258C78.5077 17.5472 78.3064 17.2097 78.1895 16.8398C78.0726 16.47 78.0434 16.078 78.1041 15.695V10.3229L75.6355 11.6143V15.695C75.6946 16.0806 75.6631 16.4746 75.5435 16.846C75.4239 17.2173 75.2194 17.5556 74.9464 17.8342C74.6733 18.1128 74.3391 18.324 73.9703 18.4511C73.6014 18.5781 73.2081 18.6176 72.8214 18.5662H71.5036C71.1169 18.6176 70.7235 18.5781 70.3547 18.4511C69.9858 18.324 69.6517 18.1128 69.3786 17.8342C69.1055 17.5556 68.9011 17.2173 68.7815 16.846C68.6619 16.4746 68.6303 16.0806 68.6894 15.695V10.3229L66.2208 11.6406V15.695C66.2816 16.078 66.2524 16.47 66.1355 16.8398C66.0186 17.2097 65.8172 17.5472 65.5473 17.8258C65.2774 18.1043 64.9464 18.3163 64.5805 18.4448C64.2145 18.5733 63.8237 18.6149 63.4389 18.5662H59.0902C58.7538 18.6167 58.4105 18.5957 58.0827 18.5048C57.7549 18.4139 57.4499 18.255 57.1875 18.0384C56.9251 17.8219 56.7112 17.5526 56.5598 17.248C56.4083 16.9434 56.3226 16.6103 56.3083 16.2704V8.43555L56.279 8.46483V8.43555L53.8104 9.7533V19.5414C53.8829 20.7665 53.517 21.9774 52.7781 22.9573C52.4258 23.369 51.9838 23.6943 51.486 23.9083C50.9882 24.1223 50.448 24.2192 49.9069 24.1916C48.8782 24.1775 47.8702 23.9008 46.9785 23.3878V25.5416C48.0102 26.1006 49.1639 26.3963 50.3373 26.4025C51.0679 26.4249 51.7954 26.2991 52.476 26.0329C53.1567 25.7667 53.7764 25.3655 54.298 24.8534C55.4893 23.6324 56.1938 22.0183 56.279 20.3145C57.0601 20.7142 57.929 20.9116 58.8062 20.8884H63.6995C64.4175 20.9398 65.1371 20.8119 65.7934 20.5162C66.4498 20.2205 67.0223 19.7663 67.4595 19.1944C67.9024 19.76 68.4759 20.2096 69.1308 20.5047C69.7857 20.7998 70.5025 20.9314 71.2196 20.8884H73.2006C73.9043 20.9247 74.6064 20.7895 75.2463 20.4944C75.8862 20.1993 76.4449 19.7532 76.8742 19.1944C77.3096 19.7649 77.8795 20.2187 78.5331 20.515C79.1867 20.8114 79.9036 20.9412 80.6196 20.8928H82.6007C83.8748 20.9358 85.1139 20.4713 86.0459 19.6014C86.5468 19.1052 86.9369 18.5085 87.1903 17.8505C87.4437 17.1925 87.5546 16.4883 87.5159 15.7843Z" fill="black"/>
<path d="M103.118 20.4064C104.027 20.4304 104.932 20.2844 105.787 19.9759C105.784 21.0861 105.387 22.1591 104.667 23.0039C104.32 23.3652 103.9 23.6482 103.434 23.8339C102.969 24.0195 102.469 24.1034 101.969 24.08C100.913 24.0641 99.8774 23.788 98.9538 23.2762V25.4578C99.9878 26.0076 101.142 26.2933 102.313 26.2895C103.112 26.3231 103.91 26.1811 104.649 25.8735C105.387 25.5659 106.05 25.1002 106.59 24.509C107.78 23.0704 108.385 21.2359 108.284 19.3712V13.1148C108.344 11.8336 107.927 10.5756 107.112 9.5846C106.638 9.06703 106.055 8.66185 105.404 8.39865C104.754 8.13545 104.053 8.02088 103.352 8.06331C102.638 8.03439 101.925 8.15769 101.262 8.42501C100.599 8.69233 100 9.09758 99.5058 9.61388C98.5187 10.8639 97.9489 12.3923 97.8769 13.9836C97.8049 15.5748 98.2344 17.1484 99.1047 18.4824C99.5668 19.1053 100.174 19.6061 100.873 19.9413C101.572 20.2766 102.343 20.4362 103.118 20.4064ZM101.094 11.4221C101.356 11.0765 101.697 10.7993 102.089 10.6142C102.481 10.4291 102.912 10.3416 103.345 10.3592C104.971 10.3592 105.785 11.3158 105.786 13.229V17.2203C105.483 17.604 105.086 17.9033 104.633 18.0892C104.181 18.2751 103.688 18.3415 103.203 18.2819C102.785 18.2945 102.37 18.2025 101.997 18.0143C101.623 17.8262 101.302 17.5477 101.064 17.2042C100.499 16.352 100.222 15.3409 100.275 14.3198C100.218 13.2898 100.508 12.2704 101.094 11.4221Z" fill="black"/>
<path d="M170.254 25.1997C170.254 24.2431 169.795 23.7648 168.877 23.7648C168.683 23.7392 168.487 23.7589 168.302 23.8224C168.118 23.8859 167.951 23.9914 167.814 24.1306C167.678 24.2698 167.576 24.4389 167.516 24.6245C167.456 24.81 167.44 25.007 167.469 25.1997C167.442 25.3908 167.46 25.5855 167.521 25.7686C167.582 25.9516 167.685 26.1179 167.822 26.2543C167.958 26.3907 168.125 26.4934 168.308 26.5543C168.491 26.6152 168.686 26.6327 168.877 26.6053C169.066 26.6305 169.258 26.6112 169.439 26.549C169.62 26.4869 169.783 26.3835 169.917 26.2471C170.051 26.1107 170.151 25.945 170.209 25.7632C170.268 25.5814 170.283 25.3885 170.254 25.1997Z" fill="black"/>
<path d="M165.698 25.1997C165.698 24.2431 165.238 23.7648 164.32 23.7648C164.127 23.7392 163.93 23.7589 163.746 23.8224C163.561 23.8859 163.394 23.9914 163.258 24.1306C163.121 24.2698 163.019 24.4389 162.959 24.6245C162.899 24.81 162.883 25.007 162.913 25.1997C162.886 25.3908 162.903 25.5855 162.964 25.7686C163.026 25.9516 163.128 26.1179 163.265 26.2543C163.402 26.3907 163.568 26.4934 163.751 26.5543C163.934 26.6152 164.129 26.6327 164.32 26.6053C164.509 26.6305 164.702 26.6112 164.882 26.549C165.063 26.4869 165.227 26.3835 165.36 26.2471C165.494 26.1107 165.594 25.945 165.653 25.7632C165.711 25.5814 165.727 25.3885 165.698 25.1997Z" fill="black"/>
<path d="M187.897 23.7646C187.703 23.7392 187.507 23.7591 187.323 23.8227C187.139 23.8863 186.972 23.9919 186.835 24.1311C186.699 24.2702 186.597 24.4392 186.537 24.6247C186.477 24.8101 186.462 25.0069 186.491 25.1995C186.482 25.3875 186.512 25.5754 186.578 25.7517C186.644 25.9279 186.745 26.089 186.875 26.2251C187.005 26.3612 187.161 26.4696 187.334 26.5436C187.507 26.6176 187.694 26.6558 187.882 26.6558C188.07 26.6558 188.256 26.6176 188.429 26.5436C188.603 26.4696 188.759 26.3612 188.889 26.2251C189.019 26.089 189.12 25.9279 189.186 25.7517C189.252 25.5754 189.281 25.3875 189.273 25.1995C189.271 24.2429 188.812 23.7646 187.897 23.7646Z" fill="black"/>
<path d="M184.713 25.1997C184.713 24.2431 184.254 23.7648 183.336 23.7648C183.142 23.7392 182.946 23.7589 182.761 23.8224C182.577 23.8859 182.41 23.9914 182.273 24.1306C182.137 24.2698 182.035 24.4389 181.975 24.6245C181.915 24.81 181.899 25.007 181.928 25.1997C181.901 25.3908 181.919 25.5855 181.98 25.7686C182.041 25.9516 182.144 26.1179 182.281 26.2543C182.417 26.3907 182.584 26.4934 182.767 26.5543C182.95 26.6152 183.145 26.6327 183.336 26.6053C183.525 26.6305 183.717 26.6112 183.898 26.549C184.079 26.4869 184.242 26.3835 184.376 26.2471C184.51 26.1107 184.61 25.945 184.668 25.7632C184.727 25.5814 184.742 25.3885 184.713 25.1997Z" fill="black"/>
<path d="M213.462 4.96149C214.381 4.96149 214.841 4.48319 214.841 3.52659C214.85 3.33855 214.82 3.15073 214.754 2.97445C214.688 2.79817 214.587 2.6371 214.457 2.50098C214.327 2.36486 214.171 2.25652 213.998 2.1825C213.825 2.10848 213.638 2.07031 213.45 2.07031C213.262 2.07031 213.076 2.10848 212.903 2.1825C212.73 2.25652 212.573 2.36486 212.443 2.50098C212.313 2.6371 212.212 2.79817 212.146 2.97445C212.08 3.15073 212.051 3.33855 212.059 3.52659C212.03 3.71892 212.046 3.91543 212.105 4.10061C212.165 4.2858 212.267 4.45461 212.403 4.59373C212.539 4.73285 212.705 4.83848 212.889 4.9023C213.073 4.96612 213.269 4.98638 213.462 4.96149Z" fill="black"/>
<path d="M241.096 0.181641L238.627 1.49941V20.8925H241.096V0.181641Z" fill="black"/>
<path d="M5.45198 20.8893C6.22027 20.8997 6.98474 20.7794 7.71267 20.5335C8.36096 20.3122 8.94582 19.9369 9.41699 19.4397C9.91329 18.8928 10.2823 18.2427 10.4976 17.5363C10.7707 16.6348 10.9001 15.696 10.8812 14.7543C11.0372 13.0486 10.5172 11.3497 9.43309 10.0235C8.32244 9.07911 6.91208 8.56055 5.45418 8.56055C3.99627 8.56055 2.5859 9.07911 1.47525 10.0235C0.391185 11.3497 -0.128816 13.0486 0.0271702 14.7543C-0.126688 16.4459 0.393753 18.1299 1.47525 19.4397C2.00549 19.9379 2.63136 20.3232 3.31493 20.5724C3.99849 20.8216 4.72552 20.9294 5.45198 20.8893ZM3.13564 11.826C3.42424 11.4953 3.78029 11.2304 4.17982 11.0488C4.57935 10.8672 5.01312 10.7733 5.45198 10.7733C5.89083 10.7733 6.3246 10.8672 6.72413 11.0488C7.12367 11.2304 7.47971 11.4953 7.76832 11.826C8.29876 12.707 8.55085 13.7276 8.49162 14.7543C8.57618 15.8012 8.32266 16.8477 7.76832 17.7398C7.14725 18.3413 6.31656 18.6776 5.45198 18.6776C4.58739 18.6776 3.7567 18.3413 3.13564 17.7398C2.57812 16.8487 2.32149 15.8022 2.40354 14.7543C2.34695 13.7267 2.60212 12.706 3.13564 11.826Z" fill="black"/>
<path d="M224.848 20.8911H228.391C229.078 20.9211 229.764 20.8148 230.409 20.5783C231.054 20.3418 231.646 19.9799 232.151 19.5133C232.669 18.9793 233.071 18.3444 233.333 17.6481C233.595 16.9518 233.71 16.2091 233.672 15.4663V0.181641L231.176 1.49941V15.4399C231.176 17.5259 230.181 18.5689 228.19 18.5689H224.704C222.996 18.706 221.292 18.2499 219.881 17.2775C220.501 16.7283 221.068 16.1224 221.575 15.4677V14.2041C220.695 12.4471 219.453 10.8965 217.929 9.65491C216.726 8.65694 215.221 8.09502 213.658 8.06042C212.686 8.09819 211.731 8.33414 210.852 8.75383C209.974 9.17353 209.19 9.76813 208.55 10.5012V12.8044C209.146 12.0966 209.877 11.5139 210.7 11.09C211.522 10.666 212.421 10.4092 213.344 10.3343C215.621 10.3343 217.554 11.7985 219.142 14.7268C217.987 16.0107 216.562 17.0218 214.968 17.687C213.375 18.3522 211.654 18.6549 209.929 18.5733H190.195C189.808 18.6243 189.415 18.5847 189.046 18.4576C188.678 18.3304 188.344 18.1192 188.071 17.8406C187.798 17.562 187.594 17.2238 187.474 16.8526C187.355 16.4814 187.323 16.0875 187.382 15.702V8.43964L184.914 9.75741V15.6991C184.973 16.0845 184.941 16.4784 184.822 16.8496C184.702 17.2208 184.498 17.5591 184.225 17.8377C183.952 18.1162 183.618 18.3275 183.249 18.4546C182.881 18.5818 182.487 18.6214 182.101 18.5703H171.179C170.793 18.6214 170.4 18.5818 170.031 18.4546C169.662 18.3275 169.328 18.1162 169.056 17.8377C168.783 17.5591 168.578 17.2208 168.459 16.8496C168.339 16.4784 168.308 16.0845 168.367 15.6991V8.43671L165.898 9.75448V15.6961C165.957 16.0816 165.926 16.4755 165.806 16.8467C165.687 17.2179 165.482 17.5562 165.209 17.8348C164.937 18.1133 164.603 18.3246 164.234 18.4517C163.865 18.5789 163.472 18.6185 163.085 18.5674H153.006C152.619 18.6051 152.229 18.5607 151.861 18.4371C151.492 18.3134 151.154 18.1134 150.868 17.85C150.373 17.1592 150.143 16.3128 150.221 15.4663V0.181641L147.725 1.49941V15.4399C147.725 17.5259 146.73 18.5689 144.739 18.5689H142.771H131.398L129.676 20.8955H133.471C133.404 21.602 133.077 22.2587 132.554 22.7384C132.031 23.2182 131.349 23.487 130.639 23.4929H130.207H125.126C125.045 23.4929 124.815 23.4929 124.687 23.4812C124.097 23.4485 123.525 23.2633 123.027 22.9438C122.538 22.6374 122.127 22.2214 121.826 21.7286C121.7 21.5258 121.591 21.3133 121.498 21.0931C121.353 20.6965 121.248 20.2865 121.185 19.8691C121.085 18.9877 121.292 18.0989 121.771 17.3521L122.64 15.9612L120.668 14.7268L119.798 16.1164C119.036 17.3202 118.713 18.7501 118.882 20.1648C118.895 20.26 118.907 20.3391 118.917 20.3918C119.009 20.9353 119.156 21.4681 119.356 21.9819C119.497 22.3202 119.665 22.6468 119.858 22.9585C120.348 23.7507 121.012 24.42 121.801 24.9146C122.619 25.4329 123.555 25.7352 124.522 25.7932C124.643 25.8034 125.012 25.8122 125.137 25.8122H130.649C131.978 25.8039 133.253 25.2883 134.214 24.3708C135.175 23.4533 135.75 22.2033 135.819 20.8764H142.322H144.957C145.693 20.9159 146.428 20.7952 147.112 20.5227C147.796 20.2502 148.413 19.8323 148.919 19.298C149.395 19.8318 149.986 20.251 150.647 20.5243C151.307 20.7976 152.021 20.918 152.735 20.8764H163.389C164.088 20.9115 164.787 20.7936 165.436 20.5308C166.086 20.2681 166.67 19.8669 167.149 19.3551C167.627 19.8668 168.211 20.2679 168.861 20.5307C169.51 20.7934 170.209 20.9114 170.909 20.8764H182.404C183.104 20.9115 183.802 20.7936 184.452 20.5308C185.101 20.2681 185.686 19.8669 186.164 19.3551C186.642 19.8668 187.227 20.2679 187.876 20.5307C188.525 20.7934 189.224 20.9114 189.924 20.8764H209.909C212.9 20.9409 215.842 20.1004 218.348 18.4649C219.053 19.2947 219.95 19.94 220.96 20.3449C222.163 20.7402 223.427 20.9201 224.693 20.8764L224.848 20.8911Z" fill="black"/>
<path d="M125.617 29.9914C125.625 29.8034 125.596 29.6156 125.53 29.4393C125.464 29.263 125.363 29.1019 125.233 28.9658C125.103 28.8297 124.947 28.7214 124.773 28.6473C124.6 28.5733 124.414 28.5352 124.226 28.5352C124.038 28.5352 123.851 28.5733 123.678 28.6473C123.505 28.7214 123.349 28.8297 123.219 28.9658C123.089 29.1019 122.988 29.263 122.922 29.4393C122.856 29.6156 122.826 29.8034 122.835 29.9914C122.805 30.1842 122.821 30.3811 122.881 30.5668C122.94 30.7524 123.042 30.9216 123.179 31.0609C123.315 31.2003 123.482 31.306 123.666 31.3697C123.851 31.4333 124.047 31.4532 124.24 31.4278C125.158 31.4278 125.617 30.949 125.617 29.9914Z" fill="black"/>
<path d="M128.799 28.5866C128.608 28.5595 128.414 28.5771 128.231 28.6382C128.048 28.6992 127.882 28.802 127.745 28.9383C127.609 29.0747 127.506 29.2409 127.445 29.4238C127.384 29.6067 127.366 29.8013 127.393 29.9922C127.364 30.1849 127.38 30.3819 127.439 30.5675C127.499 30.7531 127.601 30.9223 127.737 31.0617C127.874 31.2011 128.041 31.3067 128.225 31.3704C128.409 31.4341 128.606 31.454 128.799 31.4286C129.718 31.4286 130.177 30.9498 130.177 29.9922C130.206 29.8034 130.19 29.6105 130.132 29.4287C130.073 29.2469 129.973 29.0812 129.84 28.9448C129.706 28.8084 129.542 28.705 129.362 28.6429C129.181 28.5807 128.988 28.5614 128.799 28.5866Z" fill="black"/>
<path d="M49.286 45.2189H42.8158V39.0605H40.3574V53.5926H42.8158V47.443H49.286V53.5926H51.7444V39.0547H49.286V45.2189Z" fill="black"/>
<path d="M56.2773 53.6228H58.7372V39.082L56.2773 40.3778V53.6228Z" fill="black"/>
<path d="M77.3861 39.0605L74.9277 40.3564V53.5926H82.3453V51.3743H77.3861V39.0605Z" fill="black"/>
<path d="M85.3711 53.5926H87.8309V39.0547L85.3711 40.3505V53.5926Z" fill="black"/>
<path d="M109.322 45.9794H106.571L105.032 48.3221L102.803 45.915C103.153 45.7392 103.489 45.538 103.809 45.3132C104.139 45.0838 104.44 44.8148 104.704 44.5123C104.962 44.2189 105.172 43.8869 105.326 43.5284C105.484 43.1547 105.563 42.7524 105.558 42.3468C105.569 41.8397 105.457 41.3373 105.233 40.8826C105.029 40.4797 104.735 40.129 104.375 39.8577C104.003 39.5845 103.584 39.3824 103.139 39.2617C102.655 39.1268 102.155 39.0598 101.653 39.0626C101.141 39.0593 100.632 39.1318 100.142 39.2779C99.6883 39.4117 99.2628 39.6259 98.8853 39.9104C98.5145 40.1923 98.2138 40.5561 98.0068 40.9734C97.7818 41.4415 97.6709 41.9563 97.6832 42.4756C97.6806 42.7909 97.725 43.1047 97.815 43.4068C97.8989 43.686 98.0144 43.9547 98.1591 44.2078C98.3051 44.4601 98.4716 44.7001 98.6569 44.9252C98.8458 45.1551 99.0464 45.3967 99.2631 45.647C98.8495 45.8084 98.4564 46.0178 98.0917 46.2708C97.736 46.5169 97.4175 46.8127 97.1458 47.1493C96.8785 47.4806 96.6646 47.8516 96.5119 48.2489C96.3528 48.6628 96.2728 49.1028 96.2761 49.5462C96.2643 50.1487 96.3989 50.7451 96.6685 51.2842C96.9224 51.777 97.2753 52.2122 97.7052 52.5624C98.1467 52.9177 98.6529 53.1842 99.1957 53.3472C99.7689 53.5221 100.365 53.61 100.964 53.6078C101.755 53.6313 102.54 53.4699 103.257 53.1363C103.946 52.7732 104.555 52.2753 105.048 51.6722L106.84 53.6078H109.864L106.544 49.9869L109.322 45.9794ZM100.519 41.5576C100.855 41.3002 101.268 41.1653 101.691 41.1754C102.08 41.1652 102.46 41.2934 102.764 41.5371C102.905 41.6479 103.018 41.7903 103.095 41.9527C103.171 42.1152 103.208 42.2933 103.203 42.4727C103.206 42.7141 103.146 42.9521 103.03 43.1638C102.911 43.3786 102.758 43.5729 102.577 43.7392C102.387 43.9149 102.18 44.0709 101.959 44.2048C101.736 44.3425 101.519 44.4654 101.33 44.5767C101.171 44.439 101.019 44.2924 100.875 44.1375C100.727 43.9752 100.587 43.8056 100.456 43.6294C100.333 43.465 100.227 43.2878 100.142 43.1008C100.065 42.9352 100.024 42.7549 100.023 42.5723C100.018 42.3755 100.06 42.1803 100.147 42.0035C100.233 41.8268 100.36 41.6737 100.519 41.5576ZM102.456 51.0558C102.045 51.3436 101.554 51.4938 101.052 51.4848C100.764 51.4869 100.478 51.4337 100.21 51.3281C99.955 51.2268 99.7195 51.081 99.5149 50.8976C99.3054 50.709 99.1384 50.4781 99.0248 50.2202C98.9112 49.9622 98.8537 49.6831 98.856 49.4012C98.8495 49.1236 98.9066 48.8481 99.0229 48.5959C99.134 48.3652 99.2824 48.1545 99.4622 47.9722C99.6475 47.7849 99.851 47.6167 100.07 47.47C100.293 47.3196 100.52 47.1732 100.751 47.0307L103.587 50.1055C103.236 50.4515 102.858 50.7692 102.456 51.0558Z" fill="black"/>
<path d="M139.34 46.0164C138.844 45.714 138.311 45.4782 137.754 45.3151C137.177 45.1453 136.65 44.9691 136.173 44.7865C135.741 44.6299 135.334 44.413 134.963 44.1423C134.8 44.0173 134.67 43.8543 134.584 43.6675C134.498 43.4807 134.46 43.2757 134.471 43.0705C134.461 42.8006 134.522 42.5328 134.646 42.2933C134.771 42.0537 134.956 41.8508 135.183 41.7044C135.407 41.5573 135.654 41.4508 135.915 41.3896C136.187 41.3228 136.466 41.2893 136.747 41.2901C137.218 41.2878 137.686 41.3783 138.123 41.5565C138.543 41.7221 138.905 42.0078 139.164 42.3779L140.953 40.4935C140.431 39.9969 139.805 39.6215 139.122 39.3939C138.436 39.1693 137.719 39.0561 136.997 39.0586C136.362 39.0574 135.73 39.1436 135.118 39.3149C134.533 39.4728 133.982 39.7352 133.49 40.0894C133.016 40.433 132.623 40.8757 132.338 41.3867C132.034 41.9541 131.882 42.5909 131.899 43.2345C131.863 43.9243 132.034 44.6091 132.391 45.2009C132.703 45.6746 133.116 46.0744 133.599 46.3722C134.091 46.6715 134.62 46.9034 135.174 47.0619C135.747 47.2298 136.276 47.4099 136.76 47.6021C137.199 47.7672 137.609 48.0021 137.974 48.2976C138.139 48.4428 138.269 48.6238 138.353 48.8268C138.438 49.0298 138.475 49.2495 138.461 49.469C138.467 49.7606 138.392 50.0482 138.246 50.3006C138.104 50.5402 137.909 50.7441 137.676 50.8966C137.435 51.0555 137.17 51.1737 136.89 51.2465C136.611 51.3228 136.323 51.3617 136.034 51.3622C135.494 51.3639 134.963 51.2347 134.484 50.9859C134.005 50.7423 133.6 50.3735 133.313 49.9185L131.449 51.7092C131.998 52.3665 132.709 52.8683 133.512 53.1646C134.304 53.4512 135.14 53.5965 135.982 53.5936C136.636 53.5972 137.287 53.5054 137.914 53.3212C138.498 53.1529 139.045 52.8741 139.524 52.4999C139.992 52.1289 140.369 51.6568 140.628 51.1191C140.912 50.5115 141.052 49.8466 141.037 49.1762C141.07 48.4835 140.902 47.7961 140.551 47.198C140.24 46.7193 139.826 46.3157 139.34 46.0164Z" fill="black"/>
<path d="M151.354 46.0174C150.859 45.715 150.326 45.4792 149.769 45.3161C149.192 45.1462 148.665 44.97 148.187 44.7875C147.756 44.6309 147.349 44.414 146.978 44.1433C146.815 44.0182 146.685 43.8551 146.6 43.6683C146.514 43.4815 146.476 43.2766 146.487 43.0715C146.477 42.8015 146.537 42.5335 146.662 42.2939C146.787 42.0543 146.972 41.8515 147.199 41.7054C147.423 41.5585 147.671 41.4519 147.931 41.3906C148.2 41.3256 148.476 41.2931 148.752 41.294C149.224 41.2919 149.691 41.3824 150.127 41.5604C150.548 41.726 150.91 42.0117 151.168 42.3818L152.958 40.4974C152.435 40.0008 151.81 39.6254 151.126 39.3978C150.44 39.1732 149.723 39.06 149.001 39.0625C148.366 39.0614 147.734 39.1476 147.123 39.3188C146.538 39.4767 145.986 39.7391 145.495 40.0933C145.021 40.437 144.629 40.8797 144.344 41.3906C144.039 41.9578 143.888 42.5947 143.905 43.2384C143.869 43.9282 144.041 44.6129 144.397 45.2048C144.709 45.6783 145.122 46.078 145.605 46.3761C146.097 46.6752 146.626 46.9071 147.18 47.0658C147.753 47.2337 148.282 47.4138 148.766 47.6061C149.205 47.7707 149.615 48.0056 149.979 48.3016C150.145 48.4468 150.274 48.6278 150.359 48.8308C150.443 49.0338 150.48 49.2534 150.467 49.4729C150.472 49.7645 150.398 50.0521 150.252 50.3046C150.11 50.5442 149.915 50.748 149.682 50.9005C149.441 51.0594 149.175 51.1776 148.896 51.2504C148.617 51.3268 148.329 51.3657 148.039 51.3661C147.5 51.3678 146.969 51.2386 146.49 50.9898C146.011 50.7462 145.606 50.3774 145.319 49.9224L143.455 51.7131C144.004 52.37 144.715 52.8718 145.518 53.1685C146.31 53.455 147.146 53.6002 147.988 53.5975C148.641 53.601 149.291 53.5093 149.918 53.3252C150.502 53.1568 151.049 52.878 151.529 52.5038C151.996 52.1328 152.374 51.6607 152.633 51.123C152.916 50.5154 153.056 49.8505 153.041 49.1801C153.075 48.4874 152.906 47.7999 152.555 47.202C152.247 46.7231 151.837 46.3185 151.354 46.0174Z" fill="black"/>
<path d="M168.572 41.0289C167.905 40.3878 167.112 39.8921 166.244 39.5735C165.295 39.2246 164.291 39.051 163.28 39.061C162.276 39.05 161.279 39.2279 160.34 39.5852C159.479 39.9132 158.695 40.4157 158.037 41.0611C157.38 41.7185 156.865 42.5039 156.524 43.3687C156.147 44.3299 155.961 45.3553 155.975 46.3878C155.962 47.3984 156.148 48.4016 156.524 49.3396C156.865 50.194 157.38 50.9677 158.037 51.6112C158.694 52.2547 159.479 52.7537 160.34 53.0762C161.279 53.434 162.276 53.6118 163.28 53.6004C164.292 53.6106 165.298 53.4313 166.244 53.0718C167.115 52.7416 167.908 52.2335 168.572 51.5798C169.227 50.9217 169.744 50.1384 170.09 49.2766C170.465 48.3348 170.652 47.3284 170.639 46.3146C170.655 45.2868 170.468 44.266 170.09 43.3101C169.747 42.4531 169.23 41.6764 168.572 41.0289ZM167.724 48.2869C167.512 48.8832 167.182 49.431 166.755 49.8975C166.333 50.3536 165.822 50.7188 165.254 50.9707C164.636 51.2299 163.973 51.3634 163.304 51.3634C162.634 51.3634 161.971 51.2299 161.353 50.9707C160.788 50.7189 160.28 50.3536 159.861 49.8975C159.437 49.4288 159.108 48.8817 158.893 48.2869C158.658 47.6293 158.541 46.9353 158.548 46.237C158.543 45.5779 158.66 44.9235 158.893 44.3072C159.115 43.7256 159.443 43.1907 159.861 42.7303C160.278 42.2759 160.787 41.9155 161.353 41.6731C162.605 41.1715 164.002 41.1715 165.254 41.6731C165.823 41.9156 166.335 42.2759 166.755 42.7303C167.176 43.1885 167.506 43.724 167.724 44.3072C167.955 44.9242 168.07 45.5783 168.065 46.237C168.072 46.935 167.956 47.6287 167.724 48.2869Z" fill="black"/>
<path d="M182.886 50.9663C182.384 51.2287 181.826 51.3668 181.259 51.369C180.589 51.3791 179.924 51.2453 179.31 50.9766C178.745 50.7247 178.238 50.3594 177.82 49.9033C177.395 49.435 177.066 48.8877 176.852 48.2927C176.616 47.6353 176.499 46.9412 176.506 46.2428C176.501 45.5837 176.618 44.9293 176.852 44.313C177.073 43.7313 177.401 43.1963 177.82 42.7361C178.236 42.2818 178.744 41.9214 179.31 41.679C179.927 41.421 180.591 41.2929 181.259 41.3027C181.75 41.3042 182.235 41.396 182.693 41.5736C183.261 41.8243 183.765 42.2002 184.167 42.6732L186.082 41.2705C185.469 40.5434 184.7 39.9639 183.832 39.5749C183.009 39.2346 182.126 39.0638 181.236 39.0727C180.232 39.0618 179.234 39.2396 178.296 39.5969C177.435 39.9254 176.651 40.4278 175.993 41.0728C175.336 41.7303 174.822 42.5157 174.482 43.3804C174.104 44.3416 173.918 45.367 173.932 46.3995C173.919 47.4101 174.105 48.4134 174.482 49.3513C174.821 50.2058 175.336 50.9797 175.993 51.6233C176.65 52.2668 177.434 52.7657 178.296 53.0879C179.234 53.4456 180.232 53.6234 181.236 53.6121C182.224 53.6189 183.203 53.4195 184.11 53.0264C185.027 52.6191 185.817 51.9721 186.397 51.1537L184.366 49.6983C183.97 50.223 183.465 50.6556 182.886 50.9663Z" fill="black"/>
<path d="M189.961 53.5926H192.421V39.0547L189.961 40.3505V53.5926Z" fill="black"/>
<path d="M208.447 41.2802H212.197V53.5926H214.664V41.2729H218.203V39.0547H208.445L208.447 41.2802Z" fill="black"/>
<path d="M240.722 47.2039C240.412 46.7231 240 46.3175 239.514 46.0164C239.018 45.7141 238.485 45.4783 237.928 45.3151C237.352 45.1453 236.825 44.9691 236.347 44.7865C235.915 44.6297 235.508 44.4128 235.137 44.1423C234.974 44.017 234.845 43.8539 234.759 43.6672C234.674 43.4804 234.635 43.2756 234.647 43.0705C234.636 42.8006 234.696 42.5325 234.821 42.293C234.946 42.0534 235.131 41.8505 235.358 41.7044C235.582 41.5574 235.83 41.4509 236.09 41.3896C236.362 41.3227 236.642 41.2893 236.922 41.2901C237.393 41.2879 237.86 41.3785 238.297 41.5565C238.717 41.7221 239.079 42.0078 239.338 42.3779L241.127 40.4935C240.605 39.9969 239.979 39.6215 239.295 39.3939C238.61 39.1692 237.893 39.056 237.172 39.0586C236.537 39.0574 235.904 39.1437 235.292 39.3149C234.707 39.4728 234.156 39.7352 233.664 40.0894C233.191 40.4333 232.798 40.876 232.513 41.3867C232.209 41.9539 232.057 42.5908 232.074 43.2345C232.039 43.9243 232.21 44.609 232.566 45.2009C232.879 45.6746 233.291 46.0743 233.774 46.3722C234.265 46.6714 234.795 46.9033 235.348 47.0619C235.921 47.2298 236.45 47.4099 236.934 47.6022C237.373 47.7668 237.783 48.0017 238.147 48.2976C238.313 48.4429 238.442 48.6239 238.527 48.8269C238.611 49.0299 238.648 49.2495 238.635 49.469C238.64 49.7606 238.566 50.0482 238.42 50.3006C238.278 50.5402 238.083 50.7441 237.85 50.8966C237.609 51.0555 237.343 51.1737 237.064 51.2465C236.785 51.3229 236.497 51.3618 236.207 51.3622C235.668 51.3639 235.137 51.2347 234.658 50.9859C234.179 50.7423 233.774 50.3735 233.487 49.9185L231.623 51.7092C232.172 52.3661 232.883 52.8679 233.686 53.1646C234.478 53.4511 235.314 53.5963 236.156 53.5936C236.809 53.5972 237.459 53.5055 238.086 53.3213C238.67 53.1528 239.217 52.874 239.697 52.4999C240.164 52.1289 240.542 51.6568 240.801 51.1191C241.084 50.5115 241.224 49.8466 241.209 49.1762C241.242 48.4853 241.072 47.8 240.722 47.2039Z" fill="black"/>
<path d="M71.2572 41.2817L72.1679 39.0605H63.2715V53.5926H71.2572L72.1679 51.3714H65.7255V47.443H69.4299L70.3406 45.2218H65.7299V41.2847L71.2572 41.2817Z" fill="black"/>
<path d="M229.265 41.2817L230.176 39.0605H221.279V53.5926H229.265L230.176 51.3714H223.733V47.443H227.438L228.348 45.2218H223.733V41.2847L229.265 41.2817Z" fill="black"/>
<path d="M0.748047 53.5926H3.4319L7.09236 45.213L10.7528 53.5926H13.4367L7.09236 39.0547L0.748047 53.5926Z" fill="black"/>
<path d="M116.877 53.5926H119.561L123.221 45.213L126.882 53.5926H129.566L123.221 39.0547L116.877 53.5926Z" fill="black"/>
<path d="M195.4 53.5926H198.084L201.745 45.213L205.405 53.5926H208.089L201.745 39.0547L195.4 53.5926Z" fill="black"/>
<path d="M34.6732 39.0605L29.1532 44.601V39.0605H26.6934V53.5926H29.1532V48.0726L34.6732 53.5926H38.1521L30.8941 46.3331L38.1521 39.0547L34.6732 39.0605Z" fill="black"/>
<path d="M18.6107 39.0605L16.1523 40.3564V53.5926H23.5699V51.3743H18.6122L18.6107 39.0605Z" fill="black"/>
</svg>
