<svg width="143" height="55" viewBox="0 0 143 55" fill="none" xmlns="http://www.w3.org/2000/svg">
<path d="M76.415 11.2123V20.4293H76.4102V10.8633C76.4132 10.9813 76.415 11.0973 76.415 11.2123Z" fill="black"/>
<path d="M76.41 10.8695V12.0825C76.41 11.1395 76.0354 10.2352 75.3686 9.56838C74.7018 8.90159 73.7974 8.527 72.8544 8.527C71.9115 8.527 71.0071 8.90159 70.3403 9.56838C69.6735 10.2352 69.299 11.1395 69.299 12.0825V11.2175C69.299 10.0832 68.8484 8.99529 68.0463 8.1932C67.2442 7.3911 66.1563 6.94048 65.022 6.94048C63.8876 6.94048 62.7997 7.3911 61.9976 8.1932C61.1955 8.99529 60.7449 10.0832 60.7449 11.2175V33.9775C60.6889 33.7548 60.6607 33.5261 60.6609 33.2965V27.8285C60.6604 27.1359 60.4529 26.4593 60.0649 25.8855C59.677 25.3118 59.1265 24.8671 58.4839 24.6085C58.3983 24.5731 58.3109 24.5424 58.2219 24.5165C58.168 24.4979 58.1129 24.4828 58.0569 24.4715C57.7729 24.3977 57.4805 24.3607 57.187 24.3615C57.0704 24.3607 56.9538 24.3667 56.838 24.3795C56.778 24.3845 56.7199 24.3905 56.6649 24.4005C56.6099 24.4105 56.547 24.4185 56.489 24.4325C56.431 24.4465 56.3889 24.4535 56.3369 24.4665C56.2449 24.4905 56.151 24.5165 56.059 24.5475C55.3781 24.7848 54.7878 25.228 54.37 25.8157C53.9522 26.4033 53.7274 27.1064 53.7269 27.8275V33.5865C53.7271 33.8234 53.6934 34.0591 53.627 34.2865V11.2145C53.6751 8.25368 54.8735 5.42779 56.9684 3.33495C59.0634 1.24211 61.8905 0.0465508 64.8513 0.00133087C67.8122 -0.043889 70.6745 1.06478 72.8323 3.09267C74.9902 5.12056 76.2744 7.90851 76.413 10.8665L76.41 10.8695Z" fill="black"/>
<path d="M141.613 21.3878V32.2418C141.614 34.3366 141.004 36.3863 139.858 38.1397C138.712 39.8931 137.079 41.2741 135.16 42.1135C133.241 42.953 131.118 43.2144 129.053 42.8658C126.987 42.5172 125.068 41.5737 123.531 40.1508C121.616 41.926 119.12 42.943 116.51 43.0119C116.462 43.0119 116.417 43.0118 116.365 43.0048C116.313 42.9978 116.272 43.0148 116.224 43.0148H63.4466C61.1999 43.013 59.0233 42.2332 57.2866 40.8078C55.5904 42.2336 53.4455 43.0152 51.2296 43.0148H36.5716V33.7758C36.5836 32.7341 36.2091 31.7249 35.5204 30.9433C34.8316 30.1616 33.8775 29.663 32.8426 29.5438C32.2697 29.4894 31.6917 29.5552 31.1457 29.737C30.5997 29.9189 30.0976 30.2128 29.6718 30.5999C29.2459 30.987 28.9055 31.4588 28.6725 31.985C28.4395 32.5112 28.3189 33.0803 28.3186 33.6558V43.0148H3.58862C2.69384 43.0252 1.82808 42.6976 1.16425 42.0976C0.500416 41.4975 0.0873867 40.6691 0.0076309 39.7778C-0.0238665 39.3037 0.0423644 38.8281 0.202211 38.3806C0.362058 37.9331 0.61212 37.5232 0.936891 37.1763C1.26166 36.8294 1.65419 36.5529 2.09021 36.364C2.52623 36.175 2.99642 36.0776 3.47162 36.0778H21.2816C21.3081 36.0778 21.3336 36.0673 21.3524 36.0485C21.3711 36.0298 21.3816 36.0044 21.3816 35.9778V33.8838C21.3581 30.9789 22.4627 28.1783 24.4628 26.0715C26.4629 23.9647 29.2024 22.7162 32.1046 22.5889C33.5849 22.5453 35.0589 22.799 36.4394 23.3351C37.8199 23.8712 39.0788 24.6787 40.1417 25.7099C41.2046 26.7411 42.0499 27.975 42.6275 29.3387C43.2051 30.7023 43.5034 32.1679 43.5046 33.6488V36.0249C43.5056 36.0373 43.5109 36.0489 43.5197 36.0578C43.5285 36.0666 43.5402 36.0719 43.5526 36.0728H51.2316C51.7726 36.0728 52.2989 35.8974 52.7316 35.5728C53.1644 35.2483 53.4801 34.7921 53.6316 34.2728V27.9158C53.6317 27.1199 53.8988 26.3471 54.3901 25.7209C54.8814 25.0947 55.5686 24.6514 56.3416 24.4618L56.4936 24.4308C56.5516 24.4168 56.6106 24.4068 56.6686 24.3968L56.8406 24.3758C56.9546 24.3648 57.0716 24.3588 57.1886 24.3588C57.4824 24.3588 57.7751 24.3958 58.0596 24.4689C58.1146 24.4829 58.1696 24.4968 58.2246 24.5138C58.3146 24.5418 58.4006 24.5728 58.4866 24.6068C59.1523 24.8672 59.724 25.3222 60.127 25.9126C60.53 26.5029 60.7456 27.2011 60.7456 27.9158V33.9758C60.9003 34.575 61.2492 35.1061 61.7377 35.486C62.2262 35.866 62.8268 36.0734 63.4456 36.0759H85.9456C87.0454 36.089 88.1108 35.6933 88.9354 34.9656C89.76 34.2378 90.285 33.2297 90.4086 32.1369C90.4663 31.5325 90.397 30.9228 90.2053 30.3468C90.0136 29.7709 89.7037 29.2413 89.2953 28.7921C88.887 28.3429 88.3893 27.984 87.8342 27.7384C87.279 27.4928 86.6786 27.3659 86.0716 27.3658H69.2996V12.0799C69.2979 11.7044 69.3574 11.3312 69.4756 10.9748C69.738 10.17 70.2788 9.48524 71.0009 9.04363C71.7231 8.60201 72.5791 8.43259 73.415 8.56578C74.2509 8.69897 75.0119 9.12605 75.561 9.77022C76.1102 10.4144 76.4114 11.2334 76.4106 12.0799V20.4339H86.0716C87.583 20.4347 89.0788 20.7387 90.4706 21.3278C91.8624 21.917 93.1218 22.7794 94.1744 23.864C95.227 24.9486 96.0514 26.2332 96.5986 27.642C97.1459 29.0508 97.405 30.5551 97.3606 32.0658C97.3183 33.4479 97.0171 34.8098 96.4726 36.0809H116.228C117.245 36.0793 118.22 35.6742 118.939 34.9545C119.659 34.2348 120.063 33.2592 120.064 32.2418V26.0608C120.065 25.2608 120.342 24.4857 120.848 23.8663C121.354 23.2468 122.059 22.8211 122.843 22.6608C122.891 22.6538 122.943 22.6398 122.991 22.6338C123.039 22.6278 123.098 22.6198 123.146 22.6168L123.305 22.5958H123.763L123.921 22.6168C123.973 22.6168 124.021 22.6268 124.073 22.6338C124.125 22.6408 124.173 22.6548 124.224 22.6648C125.008 22.8239 125.713 23.2495 126.219 23.8692C126.725 24.489 127.001 25.2647 127 26.0648V32.2458C127 32.7815 127.113 33.3111 127.33 33.8006C127.547 34.2902 127.865 34.7289 128.262 35.0885C128.659 35.4482 129.126 35.7208 129.635 35.8889C130.143 36.0571 130.682 36.117 131.215 36.0648C131.742 36.0129 132.252 35.8498 132.711 35.5862C133.171 35.3227 133.569 34.9647 133.88 34.5358C134.4 33.8413 134.681 32.9966 134.68 32.1288V21.2659C134.679 20.7907 134.777 20.3206 134.965 19.8847C135.154 19.4487 135.431 19.0563 135.778 18.7317C136.125 18.4071 136.535 18.1574 136.982 17.9979C137.43 17.8385 137.906 17.7728 138.38 17.8049C139.271 17.8845 140.099 18.2978 140.699 18.9622C141.298 19.6266 141.625 20.493 141.613 21.3878Z" fill="black"/>
<path d="M139.503 13.2713C141.284 12.5337 142.129 10.4922 141.392 8.71141C140.654 6.93066 138.613 6.08503 136.832 6.82264C135.051 7.56025 134.205 9.60179 134.943 11.3825C135.681 13.1633 137.722 14.0089 139.503 13.2713Z" fill="black"/>
<path d="M123.496 18.357C125.423 18.357 126.986 16.7944 126.986 14.867C126.986 12.9395 125.423 11.377 123.496 11.377C121.568 11.377 120.006 12.9395 120.006 14.867C120.006 16.7944 121.568 18.357 123.496 18.357Z" fill="black"/>
<path d="M53.6793 46.3507C53.6609 46.3494 53.6426 46.3494 53.6243 46.3507C52.7096 46.3662 51.8375 46.7404 51.1961 47.3928C50.5547 48.0451 50.1953 48.9233 50.1953 49.8382C50.1953 50.753 50.5547 51.6313 51.1961 52.2836C51.8375 52.936 52.7096 53.3102 53.6243 53.3257C53.6426 53.327 53.6609 53.327 53.6793 53.3257C54.6049 53.3257 55.4925 52.958 56.147 52.3035C56.8015 51.649 57.1693 50.7613 57.1693 49.8357C57.1693 48.9101 56.8015 48.0224 56.147 47.3679C55.4925 46.7134 54.6049 46.3457 53.6793 46.3457V46.3507Z" fill="black"/>
<path d="M44.7608 52.2803C46.1238 50.9174 46.1238 48.7076 44.7608 47.3447C43.3979 45.9818 41.1882 45.9818 39.8252 47.3447C38.4623 48.7076 38.4623 50.9174 39.8252 52.2803C41.1882 53.6432 43.3979 53.6432 44.7608 52.2803Z" fill="black"/>
<path d="M104.301 13.1187C106.228 13.1187 107.791 11.5561 107.791 9.62867C107.791 7.7012 106.228 6.13867 104.301 6.13867C102.373 6.13867 100.811 7.7012 100.811 9.62867C100.811 11.5561 102.373 13.1187 104.301 13.1187Z" fill="black"/>
<path d="M87.9591 13.0232C88.8686 11.3238 88.2282 9.20883 86.5288 8.29934C84.8294 7.38984 82.7145 8.03019 81.805 9.7296C80.8955 11.429 81.5358 13.5439 83.2352 14.4534C84.9347 15.3629 87.0496 14.7226 87.9591 13.0232Z" fill="black"/>
<path d="M105.67 36.0801L105.005 43.0151H86.5449C93.1389 43.0151 96.4719 36.0801 96.4719 36.0801H105.67Z" fill="black"/>
<path d="M138.269 40.0382C136.289 41.93 133.661 42.995 130.923 43.016C128.184 43.037 125.54 42.0124 123.531 40.1512C125.673 38.0668 126.917 35.2294 126.999 32.2422C127 32.7778 127.112 33.3074 127.33 33.797C127.547 34.2865 127.864 34.7252 128.261 35.0849C128.658 35.4445 129.126 35.7171 129.635 35.8853C130.143 36.0534 130.681 36.1133 131.214 36.0612C131.741 36.0093 132.251 35.8461 132.711 35.5826C133.17 35.319 133.568 34.961 133.879 34.5322L138.269 40.0382Z" fill="black"/>
<path d="M70.6031 43.0156H63.4481C61.2011 43.014 59.024 42.2341 57.2871 40.8085C58.2901 39.9581 59.1126 38.9155 59.7064 37.7421C60.3001 36.5688 60.6529 35.2884 60.7441 33.9766C60.8988 34.5758 61.2477 35.1068 61.7361 35.4868C62.2246 35.8667 62.8252 36.0741 63.4441 36.0765H70.0771L70.6031 43.0156Z" fill="black"/>
<path d="M62.8567 54.5898V47.6818H60.3047V47.0488H66.1047V47.6818H63.5627V54.5898H62.8567Z" fill="black"/>
<path d="M67.9103 54.7149C67.4493 54.7359 66.9951 54.5982 66.6233 54.3249C66.4563 54.1901 66.3239 54.0175 66.2369 53.8213C66.1499 53.6252 66.111 53.4111 66.1233 53.1969C66.1152 52.9256 66.1714 52.6563 66.2873 52.4109C66.3985 52.1946 66.5757 52.0195 66.7933 51.9109C67.0153 51.7942 67.2503 51.7039 67.4933 51.6419C67.7832 51.5727 68.0771 51.5216 68.3733 51.4889C68.7727 51.4583 69.1673 51.3821 69.5493 51.2619C69.6456 51.2182 69.7255 51.145 69.7776 51.053C69.8297 50.961 69.8513 50.8549 69.8393 50.7499V50.6439C69.8393 49.9105 69.4033 49.5439 68.5313 49.5439C67.5613 49.5439 67.0517 49.9482 67.0023 50.7569H66.3633C66.3688 50.5141 66.425 50.2752 66.5283 50.0554C66.6317 49.8357 66.7799 49.64 66.9633 49.4809C67.4151 49.1442 67.9721 48.9797 68.5343 49.0169C69.821 49.0169 70.4643 49.5796 70.4643 50.7049V53.6689C70.4643 53.9709 70.584 54.1292 70.8233 54.1439C70.9053 54.1364 70.9866 54.1224 71.0663 54.1019H71.0983V54.5769C70.9581 54.6356 70.8072 54.6642 70.6553 54.6609C70.5498 54.6733 70.4429 54.6623 70.3422 54.6284C70.2416 54.5946 70.1497 54.5388 70.0731 54.4651C69.9966 54.3915 69.9374 54.3017 69.8997 54.2024C69.8621 54.1031 69.8469 53.9967 69.8553 53.8909V53.7749H69.8233C69.6102 54.0808 69.3229 54.3276 68.9882 54.492C68.6536 54.6564 68.2827 54.7332 67.9103 54.7149ZM68.0263 54.1879C68.2695 54.2009 68.5127 54.1652 68.7418 54.0828C68.971 54.0003 69.1813 53.8729 69.3603 53.7079C69.5129 53.5697 69.6352 53.4014 69.7196 53.2137C69.8039 53.0259 69.8484 52.8227 69.8503 52.6169V51.6359C69.4023 51.8323 68.9249 51.9533 68.4373 51.9939C68.212 52.0219 68.0346 52.0502 67.9053 52.0788C67.7587 52.1115 67.6144 52.1536 67.4733 52.2049C67.3411 52.246 67.2189 52.3141 67.1143 52.4049C67.0242 52.4956 66.9525 52.6029 66.9033 52.7209C66.84 52.871 66.8093 53.0329 66.8133 53.1959C66.8133 53.8579 67.2173 54.1889 68.0253 54.1889L68.0263 54.1879Z" fill="black"/>
<path d="M72.5391 54.5904V49.1374H73.1931V49.9704H73.2141C73.4094 49.6674 73.6805 49.4205 74.0003 49.2541C74.3202 49.0877 74.6777 49.0075 75.038 49.0214C75.5007 49.0003 75.9533 49.1611 76.299 49.4694C76.4631 49.6317 76.5909 49.8272 76.6736 50.0427C76.7564 50.2583 76.7924 50.4889 76.7791 50.7194V54.5904H76.1251V50.7824C76.1455 50.6159 76.1269 50.4471 76.0709 50.289C76.0148 50.131 75.9227 49.9881 75.8019 49.8717C75.6812 49.7553 75.5351 49.6686 75.3751 49.6184C75.2151 49.5682 75.0456 49.5559 74.8801 49.5824C74.438 49.5704 74.0083 49.729 73.6801 50.0254C73.5224 50.1629 73.3969 50.3332 73.3122 50.5245C73.2275 50.7158 73.1859 50.9233 73.1901 51.1324V54.5924L72.5391 54.5904Z" fill="black"/>
<path d="M78.4238 54.5907V54.0317L81.6089 49.7387V49.7067H78.6349V49.1367H82.4849V49.6007L79.2358 53.9777V54.0097H82.5789V54.5897L78.4238 54.5907Z" fill="black"/>
<path d="M86.1752 54.727C85.8236 54.7445 85.4727 54.6815 85.1492 54.5428C84.8257 54.4042 84.5381 54.1936 84.3082 53.927C83.8678 53.3313 83.631 52.6097 83.6328 51.8689C83.6346 51.1281 83.8748 50.4076 84.3181 49.814C84.5372 49.5517 84.8133 49.3427 85.1251 49.2029C85.437 49.0631 85.7766 48.9961 86.1182 49.007C86.499 48.9985 86.8763 49.0819 87.2181 49.2501C87.5206 49.4024 87.7745 49.6361 87.9512 49.925C88.1288 50.2173 88.2588 50.5359 88.3362 50.869C88.4196 51.2341 88.4602 51.6076 88.4572 51.9821H84.3021C84.2909 52.5484 84.4666 53.1026 84.8021 53.559C84.9659 53.7619 85.1757 53.9228 85.4142 54.0282C85.6527 54.1336 85.913 54.1805 86.1732 54.165C86.5421 54.1898 86.9072 54.0792 87.2004 53.8541C87.4937 53.629 87.6947 53.3047 87.7661 52.942H88.3992C88.3032 53.4486 88.0372 53.9072 87.6452 54.242C87.2293 54.575 86.7075 54.7473 86.1752 54.727ZM84.3192 51.468H87.7782C87.7876 50.9703 87.6337 50.4832 87.3402 50.0811C87.1943 49.9017 87.0075 49.7598 86.7957 49.6671C86.5838 49.5743 86.353 49.5335 86.1222 49.548C85.8877 49.537 85.6537 49.5785 85.4374 49.6697C85.2211 49.7609 85.028 49.8994 84.8722 50.075C84.5482 50.4713 84.355 50.9584 84.3192 51.4691V51.468Z" fill="black"/>
<path d="M92.3778 54.727C92.0263 54.7444 91.6755 54.6813 91.3519 54.5427C91.0284 54.4041 90.7408 54.1935 90.5109 53.927C90.0706 53.3312 89.834 52.6095 89.8359 51.8687C89.8379 51.1279 90.0784 50.4074 90.5219 49.814C90.741 49.5517 91.017 49.3427 91.3289 49.2029C91.6407 49.0631 91.9803 48.9961 92.3219 49.007C92.7028 48.9986 93.08 49.082 93.4219 49.25C93.7243 49.4024 93.9782 49.6362 94.1549 49.925C94.3324 50.2174 94.4623 50.536 94.5399 50.869C94.6233 51.234 94.6639 51.6076 94.6609 51.982H90.5049C90.4938 52.5484 90.6695 53.1025 91.0049 53.559C91.1686 53.7619 91.3785 53.9228 91.617 54.0282C91.8554 54.1336 92.1156 54.1805 92.3759 54.165C92.7447 54.19 93.1101 54.0795 93.4033 53.8544C93.6966 53.6292 93.8977 53.3048 93.9689 52.942H94.6018C94.5058 53.4485 94.2399 53.9071 93.8479 54.242C93.4321 54.575 92.9102 54.7472 92.3778 54.727ZM90.5219 51.468H93.9818C93.9912 50.9702 93.8373 50.4832 93.5438 50.081C93.3979 49.9017 93.2112 49.7597 92.9994 49.667C92.7876 49.5743 92.5566 49.5335 92.3258 49.548C92.0913 49.5369 91.8573 49.5785 91.641 49.6697C91.4247 49.7609 91.2316 49.8993 91.0758 50.075C90.7515 50.4712 90.558 50.9583 90.5219 51.469V51.468Z" fill="black"/>
<path d="M96.3223 54.5898V49.1368H96.9763V49.9598H96.9973C97.1627 49.6682 97.4041 49.427 97.6957 49.2617C97.9873 49.0963 98.3182 49.013 98.6533 49.0207C98.9748 49.014 99.2909 49.1043 99.5603 49.2798C99.8217 49.454 100.015 49.7128 100.108 50.0128H100.129C100.298 49.699 100.552 49.4394 100.861 49.264C101.171 49.0886 101.525 49.0045 101.88 49.0217C102.097 49.0142 102.313 49.05 102.516 49.1269C102.719 49.2038 102.904 49.3204 103.061 49.4698C103.221 49.6346 103.345 49.8308 103.425 50.046C103.505 50.2612 103.539 50.4906 103.525 50.7198V54.5908H102.881V50.7728C102.893 50.6105 102.871 50.4474 102.817 50.294C102.763 50.1406 102.677 50.0002 102.565 49.8818C102.338 49.6756 102.039 49.5677 101.732 49.5818C101.538 49.5773 101.345 49.6118 101.165 49.6835C100.985 49.7551 100.82 49.8624 100.682 49.9988C100.538 50.1464 100.425 50.3224 100.351 50.5156C100.278 50.7089 100.245 50.9153 100.255 51.1218V54.5917H99.6013V50.7737C99.6133 50.6127 99.5929 50.4509 99.5414 50.2979C99.4899 50.1449 99.4082 50.0037 99.3013 49.8827C99.1954 49.7808 99.07 49.7016 98.9324 49.65C98.7948 49.5984 98.6481 49.5755 98.5013 49.5828C98.3029 49.5828 98.1066 49.6225 97.9237 49.6994C97.7408 49.7763 97.5751 49.889 97.4363 50.0308C97.287 50.1701 97.1685 50.3392 97.0886 50.5271C97.0087 50.715 96.9691 50.9176 96.9723 51.1218V54.5917L96.3223 54.5898Z" fill="black"/>
</svg>
