<svg width="168" height="70" viewBox="0 0 168 70" fill="none" xmlns="http://www.w3.org/2000/svg">
<path d="M26.8322 34.7836C26.8322 31.3855 25.5071 28.1895 23.1022 25.7846L10.5695 13.252L8.92386 14.8976L21.9762 27.9528C23.8037 29.7774 24.8113 32.2025 24.8113 34.7864C24.8113 37.3704 23.8037 39.8012 21.9762 41.6259L9.15483 54.4472L8.90654 54.199L21.7741 41.3314C23.0213 40.09 23.8845 38.5107 24.2685 36.7641C24.3638 36.3281 24.257 35.8806 23.9769 35.5342C23.6998 35.1906 23.2869 34.9943 22.8423 34.9943H0V37.3184H20.703C21.0697 37.3184 21.3006 37.5551 21.393 37.7774C21.4854 37.9997 21.4912 38.3289 21.2285 38.5916L6.96645 52.8536L10.5002 56.3873L23.1022 43.7854C25.5071 41.3805 26.8322 38.1845 26.8322 34.7864V34.7836Z" fill="#101012"/>
<path d="M23.9798 34.1067C24.2628 33.7602 24.3725 33.3098 24.283 32.871C23.9076 31.107 23.0415 29.5018 21.7741 28.2373L8.68135 15.1445L7.03574 16.7815L21.2891 31.0435C21.5489 31.3005 21.5432 31.6296 21.4537 31.8519C21.3613 32.0771 21.1332 32.3167 20.7636 32.3167H0V34.6408H22.8568C23.2927 34.6408 23.7027 34.4444 23.9798 34.1038V34.1067Z" fill="#101012"/>
<path d="M48.9322 32.3175C48.5656 32.3175 48.3346 32.0779 48.2422 31.8527C48.1498 31.6304 48.1441 31.3013 48.4068 31.0444L62.6688 16.7823L61.0232 15.1367L47.864 28.3045C46.6139 29.546 45.7536 31.1223 45.3696 32.8632C45.2743 33.3049 45.384 33.7553 45.6641 34.1017C45.9412 34.4453 46.3541 34.6416 46.7958 34.6416H69.6381V32.3175H48.9351H48.9322Z" fill="#101012"/>
<path d="M45.6528 35.5255C45.3698 35.872 45.2601 36.3224 45.3496 36.7612C45.7134 38.5165 46.5824 40.1188 47.8585 41.3978L60.6568 54.1961L60.4142 54.4444L47.6564 41.6865C43.8859 37.916 43.8859 31.781 47.6564 28.0105L60.7722 14.8889L59.1266 13.252L46.5246 25.8539C41.5647 30.8139 41.5647 38.8861 46.5246 43.846L59.066 56.3873L60.5644 54.889L60.7116 54.7417L62.5997 52.8536L48.3406 38.5945C48.0808 38.3317 48.0865 37.9997 48.1818 37.7774C48.2742 37.5551 48.5052 37.3184 48.8747 37.3184H69.6384V34.9943H46.7816C46.3457 34.9943 45.9357 35.1877 45.6585 35.5284L45.6528 35.5255Z" fill="#101012"/>
<path d="M32.8632 24.2685C32.9671 24.2916 33.0711 24.3032 33.175 24.3032C33.9834 24.3032 34.6416 23.6478 34.6416 22.8452V0H32.3175V20.703C32.3175 21.1707 31.9336 21.4508 31.564 21.4508C31.4283 21.4508 31.2262 21.4132 31.0444 21.2285L16.7823 6.96645L15.1367 8.61206L28.3045 21.7712C29.5575 23.0213 31.131 23.8846 32.8632 24.2656V24.2685Z" fill="#101012"/>
<path d="M36.4578 24.3147C36.5588 24.3147 36.6599 24.3032 36.7609 24.283C38.5249 23.9076 40.1272 23.0415 41.3946 21.7741L54.4932 8.67558L52.8476 7.02996L38.5855 21.292C38.4008 21.4767 38.1987 21.5143 38.063 21.5143C37.6934 21.5143 37.3124 21.2342 37.3124 20.7665V0H34.9883V22.8568C34.9883 23.6594 35.6465 24.3147 36.4549 24.3147H36.4578Z" fill="#101012"/>
<path d="M34.8518 26.8331C38.2499 26.8331 41.4458 25.508 43.8508 23.1031L56.3834 10.5704L54.7378 8.92476L41.6855 21.9771C39.858 23.8046 37.43 24.8093 34.8489 24.8093C32.2679 24.8093 29.837 23.8017 28.0095 21.9771L14.8937 8.85547L13.248 10.5011L25.85 23.1031C28.2549 25.508 31.4509 26.8331 34.8489 26.8331H34.8518Z" fill="#101012"/>
<path d="M33.1721 45.3203C33.0711 45.3203 32.97 45.3319 32.8719 45.3521C31.1194 45.7158 29.5171 46.582 28.2353 47.8551L15.1367 60.9537L16.7823 62.5993L31.0444 48.3373C31.2262 48.1554 31.4254 48.1179 31.564 48.1179C31.9336 48.1179 32.3175 48.395 32.3175 48.8627V69.635H34.6416V46.7783C34.6416 45.9757 33.9834 45.3203 33.1721 45.3203Z" fill="#101012"/>
<path d="M36.7629 45.3667C36.6589 45.3436 36.555 45.332 36.4511 45.332C35.6456 45.332 34.9902 45.9874 34.9902 46.79V69.6323H37.3143V48.9293C37.3143 48.4616 37.6954 48.1815 38.0649 48.1815C38.2035 48.1815 38.4056 48.2191 38.5875 48.4039L52.8495 62.6659L54.4951 61.0202L41.3273 47.8524C40.0743 46.5994 38.4951 45.7391 36.7629 45.3667Z" fill="#101012"/>
<path d="M34.7836 42.8008C31.3855 42.8008 28.1895 44.123 25.7846 46.5251L13.252 59.0664L14.8976 60.712L27.9499 47.6568C29.7745 45.8293 32.1996 44.8246 34.7836 44.8246C37.3675 44.8246 39.7984 45.8322 41.6259 47.6568L54.7388 60.7727L56.3844 59.127L43.7825 46.5251C41.3776 44.123 38.1816 42.8037 34.7836 42.8037V42.8008Z" fill="#101012"/>
<path d="M90.4521 24.5002L86.9963 15.123H82.9343L75.9043 34.1978H79.4756L80.9191 30.0029H89.0404L90.4521 34.1054L90.4839 34.1978H94.0263L90.4521 24.5002ZM81.8199 27.0033L84.9783 17.7387L88.1396 27.0033H81.8199Z" fill="#101012"/>
<path d="M97.623 13.7051C96.4797 13.7051 95.7695 14.577 95.7695 15.778C95.7695 16.979 96.4797 17.848 97.623 17.848C98.7663 17.848 99.4505 17.0021 99.4505 15.778C99.4505 14.5539 98.7403 13.7051 97.623 13.7051Z" fill="#101012"/>
<path d="M109.803 20.1641C108.169 20.1641 106.806 21.3102 105.934 23.2994V20.574H102.992V34.198H105.934V28.421C105.934 25.3434 107.461 23.1348 109.505 22.9991C109.993 22.9443 110.484 22.9443 110.975 23.2157V20.4095C110.649 20.2738 110.268 20.1641 109.803 20.1641Z" fill="#101012"/>
<path d="M112.938 14.1699V34.1974H115.908V14.1699H112.938Z" fill="#101012"/>
<path d="M129.969 31.7165C129.724 31.7165 129.507 31.6357 129.371 31.5V26.8951C129.397 22.7782 127.189 20.1914 123.13 20.1914C121.005 20.1914 118.932 20.8987 118.089 21.6609L118.715 24.3863C119.506 23.5981 121.386 22.8619 123.049 22.8619C124.466 22.8619 125.61 23.4047 126.126 24.8222C124.764 25.2322 123.32 25.6681 121.903 26.2686C119.859 27.1925 117.76 28.5552 117.76 31.1737C117.76 33.5989 119.587 34.6064 121.195 34.6064C123.401 34.6064 125.39 32.6721 126.401 29.9727V32.4267C126.401 32.5624 126.808 34.5516 128.771 34.5776C129.533 34.6613 131.032 34.4967 131.687 33.7605V31.064C131.467 31.2546 130.624 31.7165 129.969 31.7165ZM126.427 26.6209V26.7594C126.372 29.9179 124.412 32.2622 122.422 32.2622C121.522 32.2622 120.624 31.6357 120.624 30.4924C120.624 29.1557 121.877 28.1741 123.02 27.7122C124.247 27.1665 125.419 26.8663 126.427 26.566V26.6209Z" fill="#101012"/>
<path d="M141.032 20.1641C138.826 20.1641 136.918 21.5008 135.881 23.4611V20.574H132.939V34.198H135.881V27.3875C135.881 24.7978 137.68 22.7797 139.943 22.7797C141.713 22.7797 142.64 24.0067 142.64 26.351V34.198H145.611V25.7245C145.611 22.237 143.896 20.1641 141.032 20.1641Z" fill="#101012"/>
<path d="M154.549 31.9923C152.479 31.9923 150.626 30.7913 150.3 28.5047H159.455C159.483 28.1208 159.538 27.7397 159.538 27.3326C159.59 23.3254 157.249 20.1641 153.377 20.1641C149.506 20.1641 147.055 23.1089 147.055 27.3875C147.055 31.6661 149.89 34.608 154.249 34.608C156.158 34.608 158.176 33.9526 159.483 32.919L158.883 30.5488C157.601 31.4207 155.912 31.9923 154.549 31.9923ZM153.406 22.7797C155.395 22.7797 156.348 24.4715 156.432 26.5964H150.164C150.3 24.1713 151.608 22.7797 153.406 22.7797Z" fill="#101012"/>
<path d="M84.5714 39.8438H77.7031V58.9185H80.8933V53.8228H84.5714C89.3119 53.8228 92.0373 51.262 92.0373 46.8189C92.0373 42.3757 89.3119 39.8438 84.5714 39.8438ZM84.352 50.7972H80.8933V42.8665H84.352C87.2419 42.8665 88.6595 44.1743 88.6595 46.8189C88.6595 49.4634 87.2419 50.7972 84.352 50.7972Z" fill="#101012"/>
<path d="M104.871 56.4381C104.626 56.4381 104.407 56.3573 104.271 56.2187V51.6139C104.3 47.4998 102.091 44.9102 98.032 44.9102C95.9043 44.9102 93.8343 45.6204 92.9912 46.3826L93.6177 49.1079C94.4059 48.3169 96.2882 47.5807 97.9483 47.5807C99.3658 47.5807 100.512 48.1263 101.029 49.5439C99.6661 49.9509 98.2226 50.3869 96.805 50.9874C94.761 51.9141 92.6621 53.2768 92.6621 55.8925C92.6621 58.3176 94.4896 59.3252 96.0977 59.3252C98.3034 59.3252 100.293 57.3909 101.3 54.6944V57.1455C101.3 57.284 101.71 59.2732 103.673 59.2992C104.435 59.38 105.934 59.2184 106.589 58.4822V55.7828C106.37 55.9733 105.524 56.4381 104.871 56.4381ZM101.329 51.3425V51.4782C101.274 54.6395 99.311 56.9838 97.3218 56.9838C96.4239 56.9838 95.5232 56.3573 95.5232 55.2111C95.5232 53.8773 96.779 52.8957 97.9223 52.4309C99.1493 51.8882 100.321 51.5879 101.329 51.2876V51.3425Z" fill="#101012"/>
<path d="M114.356 44.8848C112.719 44.8848 111.357 46.028 110.485 48.0172V45.2918H107.543V58.9187H110.485V53.1417C110.485 50.0612 112.012 47.8555 114.056 47.717C114.547 47.665 115.038 47.665 115.529 47.9364V45.1302C115.199 44.9945 114.818 44.8848 114.356 44.8848Z" fill="#101012"/>
<path d="M125.39 51.6148H124.221L130.024 45.2921H126.372L120.459 51.6148V38.8887H117.488V58.919H120.459V55.7028L122.884 53.168L126.698 58.919H130.188L125.39 51.6148Z" fill="#101012"/>
<path d="M133.867 38.4258C132.724 38.4258 132.014 39.2977 132.014 40.4958C132.014 41.6939 132.724 42.5658 133.867 42.5658C135.01 42.5658 135.692 41.7228 135.692 40.4958C135.692 39.2688 134.984 38.4258 133.867 38.4258Z" fill="#101012"/>
<path d="M147.628 44.8848C145.42 44.8848 143.512 46.2186 142.478 48.1818V45.2918H139.533V58.9187H142.478V52.1053C142.478 49.5156 144.277 47.5004 146.537 47.5004C148.31 47.5004 149.237 48.7274 149.237 51.0688V58.9187H152.204V50.4423C152.204 46.9548 150.49 44.8848 147.628 44.8848Z" fill="#101012"/>
<path d="M163.653 57.9926C161.418 57.3921 159.429 56.985 157.737 56.4942C157.059 56.3037 156.429 56.168 156.429 55.4577C156.429 54.8861 156.839 54.5599 157.301 54.3405C158.038 54.505 158.938 54.5859 159.946 54.5859C164.17 54.5859 166.049 53.1683 166.078 49.9002C166.078 47.4462 164.987 45.893 162.836 45.2376C162.616 45.0759 162.261 44.6948 162.235 44.0135C162.235 43.0319 163.569 42.8125 164.825 42.8125C165.561 42.8125 166.294 42.8962 166.704 42.9222L166.678 39.8446C163.433 39.8157 160.818 40.5231 160.818 42.9511C160.818 43.7681 161.118 44.4494 161.444 44.9662C160.982 44.9114 160.491 44.8854 159.972 44.8854C155.993 44.8854 153.897 46.6003 153.897 49.981C153.897 51.9702 154.631 53.278 156.184 53.9594C155.15 54.2596 154.004 54.941 154.004 56.5491C154.004 58.2928 155.367 58.7836 157.111 59.1907C155.803 59.6266 153.568 60.6891 153.568 62.8428C153.568 64.6155 154.769 65.649 155.993 65.649H162.943C164.496 65.649 167.195 64.806 167.195 61.8064C167.195 59.5458 165.642 58.5382 163.653 57.9926ZM160.001 47.4462C162.18 47.4462 163.133 48.3729 163.133 49.9262C163.133 51.4794 162.18 52.2964 159.946 52.2964C158.012 52.2964 156.865 51.644 156.865 49.9521C156.865 48.2603 157.931 47.4462 160.001 47.4462ZM162.371 63.1142H157.931C157.166 63.1142 156.539 62.4617 156.539 61.5898C156.539 60.4726 157.495 59.7623 158.228 59.4361C160.056 59.8172 160.899 59.9558 162.345 60.308C163.569 60.6371 164.198 60.9893 164.198 61.7255C164.198 62.6263 163.243 63.1142 162.371 63.1142Z" fill="#101012"/>
<path d="M99.1953 20.4805H96.0195V34.1968H99.1953V20.4805Z" fill="#101012"/>
<path d="M135.439 45.2031H132.264V58.9195H135.439V45.2031Z" fill="#101012"/>
</svg>
