<svg width="72" height="80" viewBox="0 0 72 80" fill="none" xmlns="http://www.w3.org/2000/svg">
<mask id="mask0_53_364" style="mask-type:luminance" maskUnits="userSpaceOnUse" x="0" y="0" width="72" height="80">
<path d="M71.672 0H0V79.429H71.672V0Z" fill="white"/>
</mask>
<g mask="url(#mask0_53_364)">
<path d="M55.5068 46.2665C49.5558 50.1195 42.5448 56.7665 37.1728 56.7665C35.8422 56.8455 34.5304 56.4218 33.4975 55.5793C32.4645 54.7367 31.7858 53.5369 31.5958 52.2175C31.5492 51.8979 31.5261 51.5754 31.5268 51.2525C31.6868 46.3195 34.8118 42.2145 36.6598 40.2135C36.5028 39.6275 36.3748 39.0585 36.2758 38.5425C35.6968 35.4885 33.4048 18.4895 33.4048 18.4895C33.4048 18.4895 32.0938 8.44848 24.8568 6.39648C25.0428 7.55848 29.0688 27.2775 29.7408 30.8195C30.1486 33.4028 30.2527 36.025 30.0508 38.6325C29.6508 41.2895 27.2038 43.9325 23.7748 46.3245C23.7748 46.3245 11.2308 55.3425 0.0078125 56.6155V63.0815H63.0898V42.7665C60.3729 43.4661 57.8044 44.65 55.5078 46.2615" fill="black"/>
<path d="M6.721 78.6066C6.512 78.3586 6.287 78.0876 6.05 77.7896C5.813 77.4916 5.563 77.1796 5.307 76.8546C5.051 76.5296 4.802 76.2166 4.563 75.9166C4.324 75.6166 4.109 75.3466 3.918 75.0996L3.618 74.7206C3.84139 74.6715 4.06149 74.6083 4.277 74.5316C4.61808 74.4119 4.94008 74.2435 5.233 74.0316C5.53728 73.8068 5.79562 73.5257 5.994 73.2036C6.19077 72.8505 6.30007 72.4555 6.31277 72.0515C6.32548 71.6475 6.2412 71.2464 6.067 70.8817C5.90797 70.5879 5.67756 70.3389 5.397 70.1577C5.10086 69.9714 4.77312 69.8409 4.43 69.7726C4.05705 69.6949 3.67695 69.6567 3.296 69.6586H2.87C2.394 69.6586 1.63 69.6656 1.031 69.6656C0.411998 69.6656 0.220999 69.6657 0.168999 69.6577L0 69.6406L0.00800323 69.8126C0.0353366 70.4193 0.0603335 71.0136 0.0830002 71.5956C0.105 72.1566 0.116997 72.7387 0.116997 73.3737V75.7407C0.116997 76.3667 0.105 76.9667 0.0830002 77.5247C0.0600002 78.1137 0.00800323 79.2596 0.00800323 79.2596L0.000999451 79.4196H1.671L1.664 79.2587C1.664 79.2587 1.611 78.1137 1.588 77.5247C1.565 76.9357 1.554 76.3397 1.554 75.7407V74.8896H1.859C2.132 75.1746 2.433 75.5196 2.776 75.9406C3.119 76.3616 3.476 76.8137 3.814 77.2537C4.152 77.6937 4.461 78.1046 4.74 78.4886C5.019 78.8726 5.366 79.3566 5.366 79.3566L5.412 79.4207H7.469L7.226 79.1627C7.226 79.1627 6.926 78.8486 6.726 78.6046M1.559 73.3746C1.559 72.8936 1.568 72.3946 1.585 71.8936L1.636 70.5247C1.753 70.5127 1.886 70.5016 2.036 70.4916C2.236 70.4776 2.496 70.4716 2.824 70.4716C3.05916 70.473 3.29362 70.4974 3.524 70.5446C3.75015 70.5905 3.96559 70.6787 4.159 70.8046C4.353 70.9335 4.51289 71.1075 4.625 71.3116C4.75442 71.5621 4.81646 71.842 4.805 72.1237C4.8177 72.4533 4.73804 72.7799 4.575 73.0667C4.42573 73.309 4.22329 73.5141 3.983 73.6666C3.73768 73.82 3.46665 73.9277 3.183 73.9846C2.73807 74.07 2.2839 74.0969 1.832 74.0646C1.74018 74.0598 1.6487 74.0497 1.558 74.0346L1.559 73.3746Z" fill="black"/>
<path d="M19.2604 78.4354C18.9631 78.458 18.6478 78.476 18.3144 78.4894C17.9811 78.5027 17.6414 78.51 17.2954 78.5114H16.4784C16.4724 78.3504 16.4684 78.1444 16.4644 77.8914C16.4584 77.5534 16.4574 77.1214 16.4574 76.5994V75.2354C16.4574 75.0944 16.4574 74.9753 16.4634 74.8793C16.4634 74.8363 16.4634 74.7963 16.4634 74.7573C16.6054 74.7573 16.7764 74.7573 16.9774 74.7643L17.8724 74.7773C18.1878 74.782 18.5024 74.7933 18.8164 74.8113C19.1304 74.8303 19.6434 74.8804 19.6434 74.8804L19.8114 74.8964V73.7224L19.6454 73.7363C19.6454 73.7363 19.2324 73.7694 19.0084 73.7844L18.4994 73.8143L18.2744 73.8254C18.0094 73.8384 17.7174 73.8514 17.3974 73.8594C17.1184 73.8674 16.8074 73.8714 16.4664 73.8724C16.4664 73.7114 16.4664 73.5044 16.4604 73.2524C16.4544 72.9144 16.4534 72.5664 16.4534 72.2084C16.4534 71.8724 16.4594 71.5703 16.4734 71.3083C16.4854 71.0873 16.4954 70.8543 16.5034 70.6133C16.8881 70.6133 17.2214 70.62 17.5034 70.6334C17.8224 70.6474 18.1174 70.6623 18.3884 70.6813L19.1584 70.7374C19.4014 70.7554 19.9654 70.7914 19.9654 70.7914L20.1284 70.8013V69.6523L19.9694 69.6594C19.9694 69.6594 19.1484 69.6944 18.7444 69.7084C17.9394 69.7354 17.1094 69.7354 16.2974 69.7084C15.8904 69.6944 15.4794 69.6784 15.0674 69.6594L14.8984 69.6523L14.9074 69.8214C14.9361 70.408 14.9614 70.995 14.9834 71.5823C15.0064 72.1593 15.0174 72.7593 15.0174 73.3663V75.7354C15.0174 76.3414 15.0064 76.9353 14.9834 77.5123C14.9604 78.0893 14.9354 78.6794 14.9074 79.2664L14.8984 79.4343L15.0674 79.4274C15.4674 79.4084 15.8774 79.3994 16.3134 79.3994H18.8134C19.2194 79.3994 20.0404 79.4274 20.0404 79.4274H20.1994V78.3024L20.0214 78.3323C20.0214 78.3323 19.5454 78.4124 19.2584 78.4324" fill="black"/>
<path d="M33.0561 69.7054C31.9031 69.7324 30.6661 69.7324 29.5121 69.7054C28.9341 69.6914 27.7361 69.6564 27.7361 69.6564H27.5781V70.8564L27.7501 70.8345C27.7501 70.8345 28.1561 70.7854 28.3971 70.7664C28.6381 70.7474 28.8901 70.7324 29.1511 70.7194C29.4121 70.7064 29.6711 70.6975 29.9301 70.6915C30.1371 70.6915 30.3371 70.6854 30.5301 70.6844C30.5551 71.5994 30.5671 72.5055 30.5671 73.3845V75.7515C30.5671 76.3305 30.5561 76.9315 30.5331 77.5355C30.5101 78.1235 30.4571 79.2704 30.4571 79.2704L30.4501 79.4294H32.1201L32.1131 79.2704C32.1131 79.2704 32.0601 78.1225 32.0361 77.5355C32.0121 76.9485 32.0021 76.3405 32.0021 75.7515V73.3765C32.0021 72.4855 32.0141 71.5765 32.0401 70.6765C32.2331 70.6765 32.4321 70.6765 32.6401 70.6835C32.8991 70.6895 33.1591 70.6974 33.4191 70.7114C33.6791 70.7254 33.9311 70.7414 34.1721 70.7584C34.4131 70.7754 34.8191 70.8265 34.8191 70.8265L34.9911 70.8484V69.6484H34.8331C34.8331 69.6484 33.6331 69.6834 33.0571 69.6974" fill="black"/>
<path d="M49.467 78.2446C49.2797 77.8212 49.0687 77.3416 48.834 76.8056C48.6 76.2706 48.35 75.6886 48.085 75.0666C47.82 74.4446 47.552 73.8136 47.285 73.1816C47.018 72.5496 46.756 71.9206 46.499 71.3016C46.242 70.6826 45.999 70.1016 45.784 69.5746L45.745 69.4746H45.28L45.24 69.5666C44.524 71.2093 43.813 72.8246 43.107 74.4126C42.407 75.9806 40.946 79.1696 40.932 79.2016L40.832 79.4186H42.201L42.235 79.3106C42.235 79.3006 42.535 78.3496 42.769 77.7106C42.998 77.0896 43.254 76.4356 43.528 75.7626C43.778 75.7552 44.0244 75.7499 44.267 75.7466C44.831 75.7376 45.424 75.7376 46.011 75.7466C46.279 75.7466 46.542 75.7556 46.803 75.7626C46.9117 76.0386 47.028 76.327 47.152 76.6276L47.558 77.6176C47.69 77.9436 47.811 78.2526 47.921 78.5506C48.031 78.8486 48.18 79.3086 48.18 79.3086L48.215 79.4146H50.035L49.922 79.1926C49.922 79.1876 49.648 78.6486 49.464 78.2356M46.485 74.8356C46.304 74.8406 46.123 74.8456 45.942 74.8476C45.448 74.8586 44.965 74.8586 44.436 74.8416C44.2587 74.8356 44.086 74.8316 43.918 74.8296L45.188 71.8696L46.485 74.8356Z" fill="black"/>
<path d="M62.9057 78.3322C62.8917 78.3322 61.5737 78.4772 60.9907 78.4902C60.4413 78.5028 59.8687 78.5095 59.2727 78.5102C59.264 77.8775 59.2557 77.1688 59.2477 76.3842C59.239 75.5342 59.2347 74.5319 59.2347 73.3772C59.2347 72.7652 59.2457 72.1692 59.2677 71.6002C59.2897 71.0312 59.3427 69.8182 59.3427 69.8182L59.3507 69.6582H57.6817L57.6887 69.8182C57.6887 69.8182 57.7417 71.0182 57.7647 71.6002C57.7877 72.1822 57.7977 72.7782 57.7977 73.3772V75.7452C57.7977 76.3452 57.7867 76.9452 57.7647 77.5282C57.7427 78.1112 57.7167 78.6932 57.6887 79.2612L57.6797 79.4282L57.8477 79.4222C58.3027 79.4032 58.7177 79.3942 59.1147 79.3942H61.6547C62.0747 79.3942 62.9177 79.4222 62.9177 79.4222H63.0877V78.3092L62.9057 78.3322Z" fill="black"/>
<path d="M0.00585938 0V53.573C12.0059 51.84 22.6469 44.224 22.6469 44.224C26.8949 41.456 29.1619 39.024 29.1619 38.449C28.7758 35.7162 28.2454 33.0057 27.5729 30.329C27.5729 30.329 23.2399 8.778 22.9309 6.708C22.7963 5.33998 23.1191 3.96595 23.8489 2.801C23.8489 2.801 33.1179 3.125 35.1579 18.386C37.1979 33.647 37.5169 37.313 38.3719 39.47C39.2269 41.627 40.0379 43.336 42.1159 42.886C43.0849 42.6733 43.9402 42.108 44.5159 41.3C44.1605 39.8699 43.4336 38.559 42.4089 37.5L42.7179 34.171C42.7179 34.171 45.4649 36.924 45.4649 40.343C45.4649 43.762 44.3649 45.564 41.4029 45.992C39.0139 46.335 37.5219 43.259 36.7269 40.456C34.9972 43.009 33.7314 45.8472 32.9879 48.84C32.9029 49.2881 32.8797 49.7456 32.9189 50.2C32.9182 50.6727 33.015 51.1406 33.2033 51.5742C33.3915 52.0079 33.6671 52.398 34.0129 52.7204C34.3587 53.0427 34.7673 53.2903 35.2131 53.4477C35.6589 53.6051 36.1323 53.6688 36.6039 53.635C39.6618 53.635 45.0409 50.135 51.6039 45.735C55.0126 43.0396 58.916 41.0376 63.0939 39.842V0H0.00585938ZM37.7529 13.932C37.5129 13.822 37.4789 13.709 37.5729 13.4C37.6557 13.1408 37.7529 12.8864 37.8639 12.638C37.9899 12.345 38.1639 12.238 38.4639 12.35C38.7703 12.4585 39.0588 12.6122 39.3199 12.806C40.0796 13.4055 40.6424 14.2188 40.9359 15.141C41.0259 15.394 41.2109 15.895 41.2109 15.895L41.2879 16.078C41.2879 16.078 41.5639 14.271 41.7179 13.472C41.8083 13.0842 41.9229 12.7025 42.0609 12.329C42.1055 12.2097 42.165 12.0965 42.2379 11.992C42.5379 11.526 42.8959 11.334 43.2549 11.434C43.7129 11.561 44.2769 12.147 44.2329 12.564C44.1452 12.9471 44.0171 13.3199 43.8509 13.676C43.6509 13.412 43.5269 13.242 43.3929 13.083C42.9409 12.549 42.5929 12.549 42.2869 13.176C42.0701 13.6727 41.9159 14.1943 41.8279 14.729C41.6589 15.581 41.5509 16.444 41.4009 17.301C41.353 17.509 41.2632 17.705 41.1369 17.877C40.7147 16.5536 40.0501 15.3203 39.1769 14.24C39.1246 14.3047 39.0535 14.3516 38.9733 14.374C38.8932 14.3964 38.8081 14.3932 38.7299 14.365C38.7299 14.365 38.7089 14.357 38.6829 14.346C38.4829 14.263 37.7539 13.932 37.7539 13.932M43.6959 30.4L40.2849 28.4L41.5389 26.254L38.5389 24.49L40.1469 21.742L43.5599 23.742L42.3029 25.9L45.3129 27.663L43.6959 30.4Z" fill="black"/>
<path d="M67.2061 61.4239C67.2061 61.1572 67.2022 60.8906 67.1942 60.6239H66.9851C66.9111 60.6239 66.8391 60.6239 66.7661 60.6309C66.6931 60.6379 66.6221 60.6389 66.5541 60.6449C66.4861 60.6509 66.3711 60.6639 66.3711 60.6639V60.4219L66.8711 60.4349C67.0351 60.4349 67.2001 60.4409 67.3711 60.4409C67.5421 60.4409 67.7031 60.4409 67.8711 60.4349L68.3711 60.4219V60.6639C68.3711 60.6639 68.2571 60.6499 68.1881 60.6449C68.1191 60.6399 68.0501 60.6349 67.9771 60.6309C67.9041 60.6269 67.8311 60.6249 67.7581 60.6239H67.5481C67.5408 60.8906 67.5371 61.1572 67.5371 61.4239V62.0859C67.5371 62.2529 67.5371 62.4189 67.5461 62.5859C67.5551 62.7529 67.5681 63.0859 67.5681 63.0859H67.1901C67.1901 63.0859 67.2051 62.7519 67.2111 62.5859C67.2171 62.4199 67.2211 62.2539 67.2211 62.0859L67.2061 61.4239Z" fill="black"/>
<path d="M69.0599 60.3762C69.2366 60.7409 69.4156 61.0949 69.5969 61.4382C69.7783 61.7815 69.9676 62.1345 70.1649 62.4972L70.2769 62.2852C70.3259 62.1922 70.3829 62.0852 70.4459 61.9712L70.6539 61.5902C70.7279 61.4532 70.804 61.3142 70.879 61.1742C70.954 61.0342 71.03 60.8952 71.103 60.7582C71.176 60.6212 71.244 60.4932 71.309 60.3752H71.3589C71.3869 60.6212 71.4139 60.8592 71.4399 61.0882C71.4659 61.3172 71.491 61.5452 71.515 61.7662C71.539 61.9872 71.564 62.2072 71.59 62.4242C71.616 62.6412 71.6749 63.0812 71.6749 63.0812H71.314C71.314 63.0812 71.2569 62.3992 71.2289 62.0812C71.2009 61.7632 71.165 61.4302 71.129 61.0992H71.121C70.9436 61.4225 70.7696 61.7442 70.5989 62.0642C70.4283 62.3842 70.2659 62.7175 70.1119 63.0642H70.0779C69.9266 62.7429 69.7659 62.4189 69.5959 62.0922C69.4259 61.7655 69.2566 61.4322 69.088 61.0922H69.08C69.0626 61.2515 69.0429 61.4242 69.0209 61.6102C68.9989 61.7962 68.9789 61.9802 68.9619 62.1612C68.9449 62.3422 68.928 62.5132 68.916 62.6752C68.904 62.8372 68.897 63.0752 68.897 63.0752H68.627C68.627 63.0752 68.6949 62.6402 68.7269 62.4072C68.7589 62.1742 68.796 61.9422 68.827 61.7072C68.858 61.4722 68.8899 61.2442 68.9189 61.0162C68.9479 60.7882 68.973 60.5722 68.994 60.3672L69.0599 60.3762Z" fill="black"/>
</g>
</svg>
