<svg width="112" height="61" viewBox="0 0 112 61" fill="none" xmlns="http://www.w3.org/2000/svg">
<path d="M93.4964 25.5165C96.5145 27.1686 98.9682 29.6873 100.541 32.7476C102.257 31.4387 103.667 29.7708 104.672 27.8605C105.677 25.9501 106.253 23.8433 106.359 21.6874C106.378 21.5017 106.378 21.2971 106.378 21.0924C106.378 17.6345 104.557 13.0438 101.976 8.71731C97.961 3.75418 94.2056 0 94.2056 0C79.6506 14.9632 88.0526 22.324 93.4988 25.5213" fill="#343434"/>
<path d="M111.529 26.6142C111.529 20.9633 106.585 14.3831 101.993 8.69531C104.73 13.286 106.602 18.1754 106.361 21.688C106.259 23.842 105.685 25.9474 104.679 27.8552C103.674 29.7631 102.262 31.4269 100.543 32.7292C103.034 38.0457 100.766 43.2683 94.5391 43.4384C94.614 43.4384 94.896 43.4575 95.0412 43.4575C103.87 43.4575 111.529 35.6695 111.529 26.6166" fill="black"/>
<path d="M79.0176 30.6094C79.9551 34.0929 81.9526 37.1988 84.7335 39.4968C87.5144 41.7948 90.941 43.1712 94.5388 43.4354H94.5757C99.1116 43.3057 101.546 40.4797 101.546 36.8909C101.527 35.4473 101.191 34.0255 100.561 32.7262C97.8571 34.7261 94.5748 35.7897 91.2118 35.7558C90.8405 35.7558 90.4503 35.7367 90.0588 35.7189C87.9694 35.6533 85.9147 35.1671 84.0176 34.2891C82.1204 33.4112 80.4199 32.1597 79.0176 30.6094Z" fill="#464646"/>
<path d="M20.8921 53.7881C20.2343 53.8463 19.5718 53.7627 18.949 53.5431C18.3263 53.3234 17.758 52.9728 17.2823 52.5148C16.8066 52.0568 16.4347 51.5022 16.1916 50.8883C15.9485 50.2743 15.8398 49.6154 15.873 48.9559C15.873 45.2564 18.3826 43.4728 23.5313 43.4728C23.7693 43.4728 24.3488 43.5096 24.814 43.5287H24.9259V43.3954C24.9259 43.2098 24.889 42.8195 24.87 42.6517C24.6474 41.369 23.7919 40.83 22.007 40.83C20.4648 40.8658 18.9312 41.0717 17.4342 41.444C17.3024 40.9388 17.2337 40.4192 17.2295 39.8971C17.2234 39.4464 17.2734 38.9967 17.3783 38.5584C19.1139 38.065 20.9083 37.8088 22.7127 37.7969C26.6536 37.7969 28.8276 39.7483 28.8276 43.3181V49.2474C28.8276 49.8602 28.8276 50.5111 28.8467 51.1989C28.8467 51.9426 28.8657 52.7041 28.8657 53.5038C28.3125 53.5923 27.7529 53.6357 27.1927 53.6334C26.6263 53.6301 26.0609 53.5868 25.5006 53.5038C25.4447 53.1135 25.3888 52.5185 25.3709 52.221V52.1091L25.334 52.146C24.1016 53.2134 22.5224 53.7951 20.8921 53.7822M23.6063 46.1048C21.1717 46.1048 19.7581 47.0342 19.7581 48.6513C19.7454 48.9418 19.7955 49.2317 19.905 49.5011C20.0145 49.7705 20.1808 50.0132 20.3925 50.2125C20.6043 50.4118 20.8565 50.5632 21.132 50.6562C21.4076 50.7492 21.6999 50.7817 21.9892 50.7515C23.0672 50.7324 25.1115 50.454 24.964 46.1786H24.8521C24.4387 46.1291 24.0227 46.1044 23.6063 46.1048Z" fill="black"/>
<path d="M6.37402 53.639C4.31071 53.639 2.30332 53.5831 0.203125 53.4712V33.4902C1.96896 33.3783 4.2179 33.3224 5.6684 33.3224C7.52617 33.1938 9.38243 33.5931 11.023 34.4742C11.6652 34.9 12.1813 35.4903 12.5176 36.1834C12.854 36.8766 12.9982 37.6473 12.9352 38.4152C12.9925 39.287 12.7692 40.1543 12.2982 40.8902C11.8272 41.6261 11.1331 42.1919 10.3174 42.505L10.0009 42.6346L10.3352 42.7084C11.4611 42.9019 12.482 43.4879 13.2169 44.3625C13.9519 45.237 14.3533 46.3436 14.35 47.486C14.4195 48.4094 14.2508 49.3351 13.8602 50.1747C13.4696 51.0143 12.87 51.7397 12.1189 52.2813C10.3799 53.2897 8.38163 53.7616 6.37521 53.6378M4.23336 50.2549H4.34521C4.88424 50.2739 5.73979 50.3108 6.31571 50.3108C9.15961 50.3108 10.3674 49.4552 10.3674 47.43C10.3674 45.3298 9.30834 44.5671 6.44065 44.5671H4.23693L4.23336 50.2549ZM5.96231 36.6113C5.51609 36.6113 4.9961 36.6304 4.34521 36.6672H4.23693V41.4447H6.0218C8.10415 41.4447 8.99659 40.6832 8.99659 38.8793C8.99659 36.8719 7.3795 36.6113 5.96707 36.6113" fill="black"/>
<path d="M31.1152 60.5346V38.1178C31.7064 38.0328 32.3028 37.9895 32.9001 37.9881C33.4046 37.9895 33.9081 38.0329 34.4053 38.1178L34.5731 39.5457L34.7409 39.397C35.9212 38.3963 37.413 37.8376 38.9603 37.8168C39.8481 37.7815 40.731 37.9648 41.5314 38.3505C42.3319 38.7362 43.0254 39.3125 43.551 40.0288C44.5719 41.5607 45.0856 43.3747 45.0194 45.2145C45.0954 47.3107 44.4818 49.3739 43.2726 51.0879C42.6542 51.8741 41.8585 52.5029 40.9507 52.923C40.0428 53.343 39.0485 53.5423 38.0489 53.5046C37.0778 53.5005 36.1108 53.3807 35.1681 53.1476L35.0193 53.1107V60.5477C33.7239 60.7246 32.4101 60.7182 31.1164 60.5287M38.087 40.9189C36.9687 40.925 35.8888 41.3267 35.0384 42.0529L35.0015 42.0898V50.1574L35.0765 50.1764C35.8855 50.3759 36.7159 50.4758 37.5491 50.4739C39.7802 50.4739 41.007 48.7081 41.007 45.5108C41.007 42.6109 39.948 40.9201 38.0881 40.9201" fill="black"/>
<path d="M54.2772 53.7889C49.37 53.7889 46.6748 51.0188 46.6748 45.9629C46.5476 43.7957 47.2524 41.6618 48.6453 39.9966C49.4049 39.2407 50.3161 38.6543 51.3189 38.2763C52.3216 37.8983 53.3932 37.7372 54.4628 37.8036C55.7692 37.7917 57.0646 38.0447 58.2705 38.5473C58.3466 38.9138 58.3777 39.2882 58.3633 39.6623C58.3667 40.2911 58.2789 40.9172 58.1027 41.5209C57.0054 41.1279 55.8485 40.9266 54.6829 40.926C53.1777 40.926 50.6681 41.5768 50.6681 45.8891C50.6681 48.9567 52.096 50.6487 54.7198 50.6487C55.9058 50.654 57.0852 50.472 58.2146 50.1097C58.365 50.7492 58.4397 51.4042 58.4371 52.0612C58.4371 52.4324 58.4371 52.7299 58.418 52.9714C57.1064 53.5239 55.6956 53.8021 54.2724 53.7889" fill="black"/>
<path d="M66.8219 53.7874C62.2859 53.7874 59.5729 50.8126 59.5729 45.8507C59.4574 43.705 60.1541 41.5944 61.5244 39.9392C62.2047 39.2279 63.0295 38.6707 63.9433 38.3051C64.8571 37.9395 65.8387 37.7741 66.8219 37.82C71.3578 37.82 74.0708 40.8126 74.0708 45.8317C74.0708 50.7948 71.3566 53.7874 66.8219 53.7874ZM66.8219 40.8174C64.6467 40.8174 63.5877 42.4535 63.5877 45.815C63.5877 49.161 64.6467 50.7781 66.8219 50.7781C68.997 50.7781 70.0561 49.161 70.0561 45.815C70.0751 42.4511 69.0149 40.8174 66.8219 40.8174Z" fill="black"/>
<path d="M0 15.9076C0.0737747 15.5173 0.129701 15.108 0.204665 14.7177C0.307443 13.8535 0.59429 13.0215 1.04587 12.2776C1.49745 11.5337 2.10327 10.8953 2.82248 10.4054C3.78977 9.79577 4.89423 9.43784 6.03524 9.36425C7.55912 9.17111 9.10707 9.36931 10.5331 9.94016C11.4307 10.3259 12.2145 10.9349 12.81 11.7094C13.4055 12.4838 13.7928 13.3978 13.9351 14.3643C14.053 15.0458 14.1151 15.7359 14.1207 16.4276C14.1576 17.6913 14.1397 18.974 14.1207 20.2353C14.1207 20.6446 14.2694 20.7743 14.6597 20.7743C17.1693 20.7553 19.6966 20.7743 22.2062 20.7743H34.5182C34.7549 20.7749 34.9913 20.7562 35.225 20.7184C35.6029 20.7093 35.9631 20.5566 36.2323 20.2913C36.5016 20.0261 36.6596 19.6682 36.6743 19.2905C36.8562 17.9059 36.7755 16.4995 36.4364 15.1448C36.2917 14.3643 35.8651 13.6641 35.2379 13.1775C34.6106 12.6909 33.8264 12.4518 33.0344 12.5056H20.2285C20.1168 12.5178 20.0038 12.5114 19.8942 12.4866C19.6895 12.4306 19.5967 12.3009 19.7454 12.1153C19.8942 11.8928 20.0798 11.6881 20.2476 11.4835C21.9944 9.40112 23.7233 7.30093 25.4713 5.21977C25.6662 5.01297 25.8237 4.77378 25.9366 4.51295C26.0238 4.26134 26.1958 4.04785 26.423 3.90895C26.6503 3.77006 26.9187 3.71437 27.1824 3.75141H30.25C29.4492 5.85859 28.2287 7.78112 26.6624 9.40232C26.923 9.42136 27.0717 9.42135 27.2205 9.42135C28.9494 9.42135 30.6784 9.38447 32.4061 9.44039C33.5588 9.4155 34.7079 9.57869 35.8081 9.92351C36.9733 10.3066 38.0117 11.0007 38.8112 11.931C39.6106 12.8613 40.1406 13.9923 40.344 15.202C40.7621 17.0145 40.743 18.9005 40.2881 20.7041C40.4229 20.7331 40.5598 20.7518 40.6974 20.76C43.207 20.76 45.6951 20.7791 48.207 20.76C50.419 20.741 51.4971 19.6451 51.8874 17.3581C51.9646 16.8163 51.9957 16.269 51.9802 15.722C51.9984 13.8443 51.9984 11.967 51.9802 10.0901C51.9802 9.77358 52.0361 9.60698 52.3895 9.57009C53.4348 9.4742 54.4869 9.48058 55.5309 9.58913C55.7915 9.60817 55.8879 9.73787 55.8879 9.99846C55.8688 12.0808 55.9617 14.181 55.851 16.2622C55.862 17.3968 55.6224 18.5198 55.1493 19.5511C54.6762 20.5824 53.9813 21.4966 53.1142 22.2284C52.03 23.0694 50.7259 23.5793 49.3588 23.6968C48.5973 23.7705 47.8119 23.7896 47.054 23.7896H14.7549C14.3646 23.7896 14.1231 23.8086 14.0862 24.3096C14.0091 25.38 13.6983 26.4206 13.1759 27.3581C12.7356 28.1493 12.1225 28.8309 11.3823 29.3524C10.6421 29.8738 9.79378 30.2216 8.90056 30.3698C6.9923 30.762 5.01325 30.6271 3.17588 29.9795C3.08868 29.9661 3.00523 29.9346 2.93086 29.8871C2.85648 29.8397 2.7928 29.7772 2.74389 29.7038C2.69497 29.6304 2.66188 29.5475 2.64673 29.4606C2.63158 29.3737 2.6347 29.2846 2.65589 29.1989C2.72966 28.4552 2.78559 27.6937 2.86055 26.95C3.66017 27.0987 4.34795 27.2665 5.05356 27.3593C5.93196 27.4985 6.82933 27.4605 7.69279 27.2475C8.40973 27.0093 9.0305 26.5458 9.46257 25.9261C9.89464 25.3064 10.1149 24.5637 10.0905 23.8086C9.94173 23.7896 9.81203 23.7896 9.66329 23.7717C8.3996 23.7348 7.13591 23.7527 5.87104 23.6789C4.46186 23.6321 3.11631 23.081 2.07922 22.1258C1.04213 21.1706 0.382418 19.8748 0.220135 18.4742C0.164209 18.0839 0.0904329 17.6746 0.0154683 17.2843M10.1464 17.9911C10.1464 17.1582 10.1464 16.3181 10.1274 15.5006C10.1274 15.315 10.0714 15.1103 10.0536 14.9247C10.0578 14.3702 9.8775 13.83 9.541 13.3893C9.20451 12.9485 8.73096 12.6322 8.19494 12.4901C7.73287 12.3792 7.25627 12.3415 6.78251 12.3783C6.12335 12.3546 5.48124 12.5907 4.99449 13.0358C4.50775 13.481 4.21531 14.0995 4.18017 14.7581C4.11865 15.115 4.07535 15.4749 4.05047 15.8362C3.93106 16.9895 4.0576 18.1551 4.42172 19.256C4.55973 19.6768 4.8253 20.0443 5.18159 20.3074C5.53788 20.5706 5.96723 20.7163 6.41007 20.7243C7.50717 20.7981 8.62212 20.7803 9.74183 20.7981C10.0762 20.8172 10.169 20.6684 10.169 20.3519C10.1321 19.5344 10.15 18.7539 10.15 17.9911" fill="black"/>
<path d="M59.7782 11.239V5.68091C59.7782 5.10499 59.7782 5.08595 60.3363 5.08595C61.2287 5.0677 62.1207 5.0677 63.0124 5.08595C63.6252 5.08595 63.6252 5.10498 63.6252 5.73683C63.6252 8.93413 63.6061 12.1124 63.6442 15.3097C63.6566 16.3212 63.7625 17.3294 63.9607 18.3214C64.5188 20.8119 66.7678 21.0724 68.4967 20.4037C68.958 20.1836 69.3535 19.8464 69.6437 19.4256C69.9339 19.0049 70.1087 18.5154 70.1507 18.006C70.2778 17.3694 70.34 16.7216 70.3363 16.0724C70.3553 14.0496 70.3553 12.0386 70.3363 10.0122C70.3363 9.65522 70.3922 9.47318 70.8015 9.47318C71.8241 9.49142 72.8462 9.49142 73.868 9.47318C74.1464 9.47318 74.2392 9.58502 74.2392 9.84442C74.2392 12.1124 74.2951 14.3982 74.2202 16.6662C74.2374 17.6863 74.0393 18.6986 73.6388 19.6371C73.2384 20.5755 72.6446 21.419 71.8963 22.1124C70.8262 23.016 69.5001 23.562 68.104 23.6736C66.9468 23.8183 65.7726 23.7375 64.6461 23.4356C63.4298 23.1232 62.335 22.4533 61.5033 21.5123C60.6716 20.5714 60.1411 19.4027 59.9805 18.1572C59.8441 17.3654 59.782 16.5627 59.7948 15.7595C59.7579 14.2542 59.7758 12.7478 59.7758 11.2378" fill="black"/>
<path d="M64.8347 28.3986C64.8221 28.117 64.8682 27.8357 64.9702 27.5729C65.0722 27.31 65.2279 27.0713 65.4273 26.8719C65.6266 26.6725 65.8654 26.5169 66.1282 26.4148C66.3911 26.3128 66.6723 26.2667 66.954 26.2794C67.2354 26.2751 67.5147 26.3278 67.7753 26.4342C68.0358 26.5406 68.2722 26.6986 68.4701 26.8986C68.668 27.0987 68.8235 27.3367 68.9271 27.5984C69.0308 27.86 69.0805 28.1399 69.0732 28.4212C69.0753 28.7031 69.0213 28.9825 68.9144 29.2433C68.8075 29.5041 68.6498 29.741 68.4505 29.9403C68.2512 30.1396 68.0142 30.2973 67.7535 30.4042C67.4927 30.5111 67.2132 30.5652 66.9314 30.5631C66.6504 30.5648 66.3718 30.5098 66.1126 30.4014C65.8533 30.2929 65.6186 30.1333 65.4225 29.9319C65.2264 29.7306 65.0729 29.4918 64.9713 29.2297C64.8697 28.9677 64.822 28.6879 64.8312 28.407" fill="black"/>
<path d="M46.0479 26.279C46.3316 26.2723 46.6138 26.3224 46.8779 26.4263C47.1419 26.5303 47.3826 26.686 47.5856 26.8843C47.7886 27.0825 47.95 27.3194 48.0601 27.5809C48.1703 27.8425 48.227 28.1234 48.227 28.4072C48.227 28.691 48.1703 28.9719 48.0601 29.2334C47.95 29.495 47.7886 29.7319 47.5856 29.9301C47.3826 30.1284 47.1419 30.2841 46.8779 30.3881C46.6138 30.492 46.3316 30.5421 46.0479 30.5353C45.7643 30.5439 45.482 30.4944 45.2182 30.3898C44.9545 30.2852 44.715 30.1277 44.5143 29.9271C44.3137 29.7265 44.1563 29.4869 44.0516 29.2232C43.947 28.9595 43.8975 28.6771 43.9061 28.3935C43.8942 28.1101 43.9417 27.8274 44.0455 27.5634C44.1493 27.2994 44.307 27.06 44.5086 26.8605C44.7103 26.6611 44.9513 26.5058 45.2164 26.4049C45.4814 26.3039 45.7647 26.2594 46.0479 26.2743" fill="black"/>
</svg>
