<svg width="324" height="33" viewBox="0 0 324 33" fill="none" xmlns="http://www.w3.org/2000/svg">
<path d="M319.331 3.78201L320.741 0H323.21V6.51801H321.47V2.24902H321.436L320.029 6.51901H318.639L317.229 2.24902H317.197V6.51901H315.458V0.00100708H317.924L319.331 3.78201ZM314.144 1.50302H312.404V6.51801H310.425V1.50302H308.686V0.00302124H314.144V1.50302Z" fill="black"/>
<path d="M306.69 0V25.925H300.51V0H306.69Z" fill="black"/>
<path d="M284.704 14.5602C285.067 12.2682 286.521 10.7102 288.699 10.7102C289.691 10.7484 290.629 11.1721 291.314 11.8911C291.998 12.61 292.375 13.5676 292.364 14.5602H284.704ZM288.699 6.53522C287.376 6.49771 286.058 6.72649 284.824 7.20798C283.59 7.68946 282.466 8.41381 281.518 9.3381C280.569 10.2624 279.816 11.3678 279.303 12.5886C278.79 13.8095 278.528 15.121 278.531 16.4452C278.531 22.7592 282.704 26.4632 288.839 26.4632C293.056 26.4632 297.081 24.5712 298.208 20.2192H292.438C292.121 20.8736 291.617 21.4194 290.99 21.7876C290.363 22.1559 289.64 22.33 288.914 22.2882C286.301 22.2882 284.814 20.5832 284.705 18.0042H298.536C298.824 11.6112 295.449 6.53522 288.698 6.53522H288.699Z" fill="black"/>
<path d="M276.766 6.71949C277.255 6.71427 277.743 6.76257 278.221 6.86351V12.4895C277.455 12.2598 276.661 12.1383 275.862 12.1285C275.256 12.084 274.647 12.1675 274.075 12.3736C273.503 12.5796 272.981 12.9037 272.543 13.3247C272.104 13.7456 271.759 14.2541 271.53 14.8171C271.301 15.3801 271.192 15.985 271.212 16.5925V25.9255H265.041V7.08448H271.034V10.3845H271.104C271.533 9.24908 272.314 8.28072 273.333 7.62123C274.351 6.96173 275.555 6.64573 276.766 6.71949Z" fill="black"/>
<path d="M252.719 22.6558C251.345 22.6558 250.147 22.0388 250.147 20.5138C250.147 19.0218 251.306 18.4419 252.685 18.1139C254.03 17.7479 255.627 17.6408 256.5 17.0978C256.645 20.9838 255.663 22.6558 252.719 22.6558ZM262.453 17.4849V12.8488C262.453 7.51084 258.13 6.53484 253.662 6.53484C251.589 6.46289 249.531 6.90976 247.675 7.83486C246.782 8.34093 246.039 9.07484 245.523 9.96169C245.006 10.8485 244.734 11.8565 244.735 12.8828H250.506C250.605 12.1624 250.985 11.5103 251.563 11.0686C252.14 10.627 252.869 10.4315 253.591 10.5248C254.868 10.5248 256.57 11.0678 256.57 12.4838C256.57 13.6468 255.99 14.0098 254.938 14.2298C250.654 15.0998 243.973 14.6238 243.973 20.7628C243.973 24.6478 246.808 26.4629 250.394 26.4629C251.532 26.5112 252.668 26.3308 253.735 25.9323C254.802 25.5338 255.779 24.9253 256.607 24.1428C256.653 24.7487 256.775 25.3464 256.971 25.9218H262.454V17.4828L262.453 17.4849Z" fill="black"/>
<path d="M232.898 21.7434C230.104 21.7434 229.158 19.6014 229.158 16.3024C229.158 12.4164 231.269 11.2524 232.936 11.2524C235.661 11.2524 236.601 13.9024 236.601 16.3024C236.601 18.8754 235.66 21.7434 232.898 21.7434ZM234.354 6.53538C233.327 6.50775 232.311 6.74315 231.4 7.21922C230.49 7.6953 229.717 8.39623 229.154 9.25538H229.081V7.08339H223.203V32.2404H229.373V23.8854H229.447C230.061 24.7247 230.873 25.3994 231.81 25.8493C232.747 26.2993 233.781 26.5105 234.82 26.4644C240.16 26.4644 242.767 21.8194 242.767 16.9214C242.771 11.6114 240.271 6.53538 234.354 6.53538Z" fill="black"/>
<path d="M211.601 21.7452C208.801 21.7452 207.861 19.6032 207.861 16.3042C207.861 12.4182 209.961 11.2542 211.637 11.2542C214.361 11.2542 215.307 13.9042 215.307 16.3042C215.307 18.8772 214.36 21.7452 211.601 21.7452ZM213.048 6.53715C212.023 6.51073 211.009 6.74674 210.101 7.22279C209.193 7.69885 208.421 8.39916 207.86 9.25716H207.786V7.08516H201.906V32.2421H208.074V23.8872H208.151C208.765 24.7271 209.578 25.4021 210.516 25.8521C211.454 26.302 212.489 26.513 213.528 26.4661C218.862 26.4661 221.473 21.8211 221.473 16.9231C221.474 11.6131 218.969 6.53715 213.049 6.53715H213.048Z" fill="black"/>
<path d="M184.568 16.264L187.508 7.19101H187.577L190.443 16.264H184.568ZM184.13 0L174.43 25.925H181.372L183.007 21.274H192.043L193.643 25.925H200.681L190.994 0H184.13Z" fill="black"/>
<path d="M162.736 13.8332V25.9232H156.566V16.8052C156.566 14.2322 156.854 11.6112 153.481 11.6112C151.156 11.6112 150.141 13.5762 150.141 15.6482V25.9232H143.969V7.08321H149.958V9.65722H150.036C150.69 8.69169 151.572 7.90193 152.604 7.35751C153.636 6.81308 154.785 6.53069 155.952 6.53521C162.228 6.53521 162.736 11.1082 162.736 13.8332Z" fill="black"/>
<path d="M132.105 22.655C130.729 22.655 129.525 22.038 129.525 20.513C129.525 19.021 130.691 18.441 132.067 18.113C133.413 17.747 135.011 17.6399 135.883 17.0969C136.027 20.9829 135.05 22.655 132.105 22.655ZM141.838 12.849C141.838 7.51096 137.521 6.53496 133.051 6.53496C130.978 6.46238 128.92 6.90925 127.063 7.83495C126.17 8.34029 125.426 9.07398 124.909 9.96096C124.393 10.8479 124.121 11.8563 124.121 12.883H129.894C129.994 12.1625 130.374 11.5106 130.952 11.069C131.53 10.6274 132.259 10.4319 132.98 10.525C134.249 10.525 135.957 11.068 135.957 12.484C135.957 13.647 135.375 14.01 134.319 14.23C130.04 15.1 123.361 14.624 123.361 20.763C123.361 24.648 126.191 26.463 129.78 26.463C130.918 26.5117 132.053 26.3314 133.12 25.9329C134.186 25.5344 135.162 24.9257 135.988 24.143C136.04 24.7482 136.163 25.3452 136.353 25.922H141.837L141.838 12.849Z" fill="black"/>
<path d="M116.141 18.5152H122.135C121.584 23.5572 117.67 26.4642 112.657 26.4642C106.99 26.4642 102.783 22.5792 102.783 16.8062C102.783 10.8192 106.597 6.53516 112.657 6.53516C117.34 6.53516 121.515 9.00315 121.957 13.9781H115.963C115.917 13.2201 115.576 12.5102 115.013 12.0005C114.45 11.4908 113.71 11.2218 112.951 11.2512C109.498 11.2512 108.957 14.1931 108.957 16.8051C108.957 19.2401 110.009 21.7422 112.621 21.7422C114.763 21.7442 115.855 20.5142 116.141 18.5152Z" fill="black"/>
<path d="M94.9707 0H101.145V4.71701H94.9707V0Z" fill="black"/>
<path d="M94.9707 7.08398H101.145V25.925H94.9707V7.08398Z" fill="black"/>
<path d="M91.8295 6.71798C92.3173 6.71298 92.8041 6.76128 93.2815 6.86199V12.488C92.5155 12.2579 91.7211 12.1364 90.9215 12.127C90.3157 12.0829 89.7074 12.1667 89.1362 12.373C88.5649 12.5793 88.0435 12.9035 87.6057 13.3245C87.1679 13.7455 86.8236 14.2539 86.5951 14.8167C86.3666 15.3794 86.2591 15.984 86.2795 16.591V25.924H80.1055V7.08297H86.0915V10.383H86.1645C86.5925 9.2465 87.3738 8.27724 88.3934 7.61758C89.4131 6.95791 90.6174 6.6426 91.8295 6.71798Z" fill="black"/>
<path d="M64.5432 14.5602C64.9022 12.2682 66.3612 10.7102 68.5362 10.7102C69.5281 10.7494 70.4657 11.1732 71.1504 11.8919C71.8351 12.6106 72.213 13.5676 72.2042 14.5602H64.5432ZM68.5362 6.53519C67.2125 6.49783 65.8947 6.7267 64.6611 7.20822C63.4274 7.68974 62.3031 8.4141 61.3547 9.33835C60.4063 10.2626 59.6531 11.3679 59.14 12.5887C58.6268 13.8095 58.364 15.1209 58.3672 16.4452C58.3672 22.7592 62.5412 26.4632 68.6812 26.4632C72.8942 26.4632 76.9212 24.5712 78.0432 20.2192H72.2722C71.9557 20.8731 71.4525 21.4186 70.8262 21.7869C70.1999 22.1551 69.4786 22.3295 68.7532 22.2882C66.1422 22.2882 64.6532 20.5832 64.5432 18.0042H78.3742C78.6622 11.6112 75.2862 6.53519 68.5362 6.53519Z" fill="black"/>
<path d="M56.7135 14.6698V25.9258H50.5375V14.8468C50.5375 12.8198 49.5605 11.6128 47.9625 11.6128C45.3095 11.6128 45.0545 13.6518 45.0545 16.7028V25.9248H38.8805V15.2108C38.8805 12.9968 38.2355 11.6108 36.5605 11.6108C34.3475 11.6108 33.4015 12.8868 33.4015 16.7368V25.9228H27.2305V7.08484H33.2205V9.65885H33.2935C33.8453 8.71245 34.6348 7.92655 35.5836 7.37897C36.5325 6.83139 37.6079 6.54111 38.7035 6.53684C41.0665 6.53684 43.1735 7.29882 44.1815 9.58182C44.8286 8.62238 45.7062 7.8408 46.7339 7.30878C47.7616 6.77675 48.9065 6.51133 50.0635 6.53684C56.0555 6.53684 56.7135 11.0768 56.7135 14.6698Z" fill="black"/>
<path d="M10.131 16.264L13.074 7.19101H13.146L16.01 16.264H10.131ZM9.7 0L0 25.925H6.932L8.568 21.274H17.61L19.202 25.925H26.242L16.556 0H9.7Z" fill="black"/>
</svg>
