<svg width="291" height="45" viewBox="0 0 291 45" fill="none" xmlns="http://www.w3.org/2000/svg">
<path d="M5.68737 0.00195312H0V44.861H5.68737V0.00195312Z" fill="black"/>
<path d="M14.3064 0.00529629V10.1016L8.62695 6.97372V0L14.3064 0.00529629Z" fill="black"/>
<path d="M8.625 11.0703L14.3044 14.2154V44.8593H8.625V11.0703Z" fill="black"/>
<path d="M22.9314 0.00585938V30.1821L17.252 27.0371V0.0111557L22.9314 0.00585938Z" fill="black"/>
<path d="M22.9141 31.6553L22.9326 31.6367V31.691L22.9141 31.6553Z" fill="black"/>
<path d="M17.252 31.1348L22.9314 34.2798V44.8663H17.252V31.1348Z" fill="black"/>
<path d="M31.5603 0.00585938V26.8754L25.8809 30.0205V0.00585938H31.5603Z" fill="black"/>
<path d="M25.8809 34.1181L31.5603 30.9902V44.8649H25.8809V34.1181Z" fill="black"/>
<path d="M40.1872 0.00585938V7.21277L34.5078 10.3406V0.00715313L40.1872 0.00585938Z" fill="black"/>
<path d="M34.5078 14.4566L40.1872 11.3301V44.8674H34.5078V14.4566Z" fill="black"/>
<path d="M48.8163 0.00195312H43.1289V44.861H48.8163V0.00195312Z" fill="black"/>
<path d="M71.4814 32.6215C64.3407 32.6215 61.6699 29.699 61.6699 24.6965H66.1663C66.1663 27.7317 67.6845 28.6869 71.6192 28.6869C74.5152 28.6869 75.4716 28.0139 75.4716 26.9434C75.4716 25.5113 73.0513 24.8648 70.1566 23.8805C65.9689 22.4749 62.5695 21.3514 62.5695 17.4711C62.5695 14.0995 65.2402 12.2461 70.354 12.2461C76.4255 12.2461 79.1507 15.3368 79.1507 19.2675H74.6542C74.6542 16.8511 72.7996 16.1767 70.354 16.1767C68.3323 16.1767 67.0658 16.6272 67.0658 17.634C67.0658 18.5336 67.5441 18.8688 70.7196 19.9379C74.3747 21.1752 79.9681 22.7478 79.9681 26.8785C79.9694 30.2872 77.5781 32.6215 71.4814 32.6215Z" fill="black"/>
<path d="M90.3749 16.462V28.4077H94.8713V32.3397H81.3809V28.4077H85.8772V16.462H81.3809V12.5273H94.8713V16.462H90.3749Z" fill="black"/>
<path d="M97.4108 30.2611V12.5273H101.907V28.6899L111.545 28.4117V32.3437L99.8259 32.6245C99.5028 32.6692 99.1737 32.6393 98.8639 32.5371C98.5541 32.4349 98.2719 32.2632 98.0387 32.035C97.8056 31.8069 97.6278 31.5284 97.519 31.2209C97.4101 30.9135 97.3731 30.5851 97.4108 30.2611Z" fill="black"/>
<path d="M113.577 12.5273L118.804 31.2176H119.929L125.185 12.5273H129.738L124.007 32.3397H114.733L109.027 12.5273H113.577Z" fill="black"/>
<path d="M131.436 12.5273H145.57V16.462H135.929V20.4523H144.164V24.3869H135.929V28.4077H145.57V32.3397H131.436V12.5273Z" fill="black"/>
<path d="M148.113 12.5273H155.785C160.506 12.5273 164.609 13.6243 164.609 18.0624C164.609 21.324 161.969 22.2235 159.575 22.5057V23.6278H162.471C162.793 23.59 163.12 23.6257 163.426 23.7321C163.733 23.8386 164.011 24.0131 164.241 24.2426C164.47 24.472 164.645 24.7505 164.751 25.057C164.858 25.3635 164.893 25.6902 164.855 26.0125V32.3344H160.36V25.366H152.604V32.3344H148.107L148.113 12.5273ZM155.785 21.4366C158.454 21.4366 160.113 21.4366 160.113 18.9619C160.113 16.462 158.454 16.462 155.785 16.462H152.605V21.4366H155.785Z" fill="black"/>
<path d="M185.081 32.6215C177.94 32.6215 175.277 29.699 175.277 24.6965H179.774C179.774 27.7317 181.292 28.6869 185.227 28.6869C188.121 28.6869 189.076 28.0139 189.076 26.9434C189.076 25.5113 186.659 24.8648 183.764 23.8805C179.576 22.4749 176.174 21.3514 176.174 17.4711C176.174 14.0995 178.846 12.2461 183.961 12.2461C190.03 12.2461 192.758 15.3368 192.758 19.2675H188.262C188.262 16.8511 186.407 16.1767 183.961 16.1767C181.937 16.1767 180.672 16.6272 180.672 17.634C180.672 18.5336 181.15 18.8688 184.327 19.9379C187.981 21.1752 193.574 22.7478 193.574 26.8785C193.569 30.2872 191.182 32.6215 185.081 32.6215Z" fill="black"/>
<path d="M205.16 12.2422C210.697 12.2422 214.351 15.2774 214.941 20.1672H210.445C210.238 18.9653 209.584 17.8861 208.614 17.1461C207.645 16.4061 206.431 16.0599 205.217 16.1769C201.761 16.1769 199.486 18.3417 199.486 22.4167C199.486 26.5236 201.762 28.683 205.217 28.683C206.434 28.7942 207.649 28.4422 208.618 27.6974C209.587 26.9526 210.239 25.8697 210.445 24.6649H214.941C214.351 29.5812 210.702 32.6137 205.16 32.6137C202.458 32.6137 199.867 31.5404 197.957 29.6298C196.046 27.7192 194.973 25.1279 194.973 22.426C194.973 19.724 196.046 17.1328 197.957 15.2222C199.867 13.3116 202.458 12.2383 205.16 12.2383V12.2422Z" fill="black"/>
<path d="M217.482 12.5273H225.156C229.875 12.5273 233.98 13.6243 233.98 18.0624C233.98 21.324 231.339 22.2235 228.945 22.5057V23.6278H231.839C232.161 23.5905 232.487 23.6265 232.794 23.7332C233.1 23.8399 233.378 24.0144 233.608 24.2437C233.837 24.473 234.011 24.7513 234.118 25.0576C234.225 25.3638 234.261 25.6903 234.223 26.0125V32.3344H229.728V25.366H221.969V32.3344H217.473L217.482 12.5273ZM225.156 21.4366C227.823 21.4366 229.482 21.4366 229.482 18.9619C229.482 16.462 227.823 16.462 225.156 16.462H221.977V21.4366H225.156Z" fill="black"/>
<path d="M237.055 12.5273H251.189V16.462H241.551V20.4523H249.783V24.3869H241.551V28.4077H251.189V32.3397H237.055V12.5273Z" fill="black"/>
<path d="M253.727 12.5273H267.862V16.462H258.221V20.4523H266.456V24.3869H258.221V28.4077H267.859V32.3397H253.725L253.727 12.5273Z" fill="black"/>
<path d="M270.402 12.5273H279.255L285.24 31.2176H286.368L285.521 28.4077V12.5273H290.017V32.3397H281.166L275.18 13.6521H274.055L274.899 16.462V32.3397H270.402V12.5273Z" fill="black"/>
</svg>
